<svg xmlns="http://www.w3.org/2000/svg" width="234" height="25" viewBox="0 0 234 25">
  <path fill="#01FFFF" fill-rule="evenodd" d="M566.968509,181.540488 L576.447943,185.13946 L576.447943,189.043702 L563,183.050771 L563,179.949871 L576.447943,173.973008 L576.447943,177.877249 L566.968509,181.540488 Z M587.855398,188.883033 C588.830125,188.883033 589.638814,188.599189 590.281491,188.031491 C590.924168,187.463793 591.266924,186.762215 591.309769,185.926735 L594.989075,185.926735 C594.946229,187.008574 594.608829,188.018097 593.976864,188.955334 C593.344898,189.892571 592.488009,190.634316 591.40617,191.180591 C590.32433,191.726866 589.156819,192 587.903599,192 C585.472139,192 583.544137,191.212733 582.119537,189.638175 C580.694937,188.063617 579.982648,185.88926 579.982648,183.115039 L579.982648,182.713368 C579.982648,180.067682 580.689582,177.949558 582.10347,176.358933 C583.517359,174.768308 585.445361,173.973008 587.887532,173.973008 C589.954809,173.973008 591.639132,174.575508 592.940553,175.780527 C594.241973,176.985546 594.924807,178.568114 594.989075,180.528278 L591.309769,180.528278 C591.266924,179.532129 590.926846,178.712728 590.289524,178.070051 C589.652203,177.427375 588.840836,177.106041 587.855398,177.106041 C586.591468,177.106041 585.616756,177.563941 584.931234,178.479756 C584.245712,179.39557 583.897601,180.785338 583.886889,182.6491 L583.886889,183.275707 C583.886889,185.160892 584.226967,186.566726 584.907134,187.493252 C585.5873,188.419778 586.570045,188.883033 587.855398,188.883033 Z M597.206298,182.825835 C597.206298,181.122742 597.543698,179.588374 598.218509,178.222686 C598.89332,176.856998 599.841254,175.807309 601.062339,175.073586 C602.283425,174.339864 603.686582,173.973008 605.271851,173.973008 C607.617621,173.973008 609.521522,174.728142 610.983612,176.238432 C612.445701,177.748722 613.235646,179.751701 613.35347,182.247429 L613.369537,183.163239 C613.369537,184.877044 613.04017,186.408734 612.381427,187.758355 C611.722683,189.107976 610.780105,190.15231 609.553663,190.891388 C608.327222,191.630466 606.910676,192 605.303985,192 C602.851102,192 600.888289,191.183277 599.415488,189.549807 C597.942688,187.916337 597.206298,185.739302 597.206298,183.018638 L597.206298,182.825835 Z M601.11054,183.163239 C601.11054,184.952023 601.480073,186.352501 602.219152,187.364717 C602.95823,188.376933 603.986497,188.883033 605.303985,188.883033 C606.621472,188.883033 607.647061,188.3689 608.380784,187.340617 C609.114507,186.312334 609.481362,184.807422 609.481362,182.825835 C609.481362,181.069186 609.103796,179.67674 608.34865,178.648458 C607.593505,177.620175 606.567916,177.106041 605.271851,177.106041 C603.997209,177.106041 602.985008,177.612141 602.235219,178.624357 C601.485429,179.636573 601.11054,181.149519 601.11054,183.163239 Z M615.940231,182.857969 C615.940231,180.180149 616.561476,178.029892 617.803985,176.407134 C619.046493,174.784375 620.712072,173.973008 622.800771,173.973008 C624.643111,173.973008 626.131957,174.615675 627.267352,175.901028 L627.267352,167 L631.171594,167 L631.171594,191.678663 L627.636889,191.678663 L627.444087,189.879177 C626.276558,191.293066 624.71809,192 622.768638,192 C620.733495,192 619.08666,191.180599 617.828085,189.541774 C616.56951,187.902948 615.940231,185.675036 615.940231,182.857969 Z M619.844473,183.195373 C619.844473,184.962734 620.184551,186.34179 620.864717,187.332584 C621.544883,188.323377 622.511562,188.818766 623.764781,188.818766 C625.360762,188.818766 626.528274,188.106477 627.267352,186.681877 L627.267352,179.258997 C626.549696,177.866531 625.392896,177.170308 623.796915,177.170308 C622.532984,177.170308 621.558272,177.671053 620.872751,178.672558 C620.187229,179.674062 619.844473,181.181652 619.844473,183.195373 Z M642.900386,192 C640.42608,192 638.420423,191.220766 636.883355,189.662275 C635.346286,188.103784 634.577763,186.028505 634.577763,183.436375 L634.577763,182.95437 C634.577763,181.219143 634.912486,179.668709 635.581941,178.303021 C636.251396,176.937333 637.191296,175.874254 638.401671,175.113753 C639.612045,174.353252 640.961646,173.973008 642.450514,173.973008 C644.817707,173.973008 646.64663,174.728142 647.937339,176.238432 C649.228048,177.748722 649.873393,179.88559 649.873393,182.6491 L649.873393,184.22365 L638.514139,184.22365 C638.631963,185.658962 639.111285,186.79434 639.952121,187.62982 C640.792956,188.4653 641.850679,188.883033 643.125321,188.883033 C644.914105,188.883033 646.370817,188.160033 647.495501,186.71401 L649.600257,188.722365 C648.904024,189.761359 647.974834,190.567371 646.812661,191.140424 C645.650487,191.713478 644.346408,192 642.900386,192 Z M642.434447,177.106041 C641.363319,177.106041 640.498397,177.48093 639.839653,178.23072 C639.180909,178.980509 638.760498,180.024843 638.578406,181.363753 L646.017352,181.363753 L646.017352,181.07455 C645.931662,179.767774 645.583551,178.779673 644.973008,178.110219 C644.362465,177.440764 643.516286,177.106041 642.434447,177.106041 Z M662.887532,181.460154 L652.958226,177.812982 L652.958226,173.973008 L666.839974,179.949871 L666.839974,183.050771 L652.958226,189.027635 L652.958226,185.187661 L662.887532,181.460154 Z M673.700514,174.294344 L673.812982,176.109897 C675.034068,174.685297 676.705002,173.973008 678.825835,173.973008 C681.150183,173.973008 682.740784,174.862031 683.597686,176.640103 C684.861617,174.862031 686.639663,173.973008 688.931877,173.973008 C690.849196,173.973008 692.276452,174.503208 693.213689,175.563625 C694.150926,176.624041 694.630248,178.187865 694.651671,180.255141 L694.651671,191.678663 L690.747429,191.678663 L690.747429,180.367609 C690.747429,179.264348 690.506429,178.455658 690.024422,177.941517 C689.542414,177.427375 688.744436,177.170308 687.630463,177.170308 C686.741427,177.170308 686.015748,177.408631 685.453406,177.885283 C684.891064,178.361935 684.49743,178.985857 684.272494,179.757069 L684.28856,191.678663 L680.384319,191.678663 L680.384319,180.239075 C680.330762,178.19322 679.286428,177.170308 677.251285,177.170308 C675.687439,177.170308 674.578838,177.80762 673.92545,179.082262 L673.92545,191.678663 L670.021208,191.678663 L670.021208,174.294344 L673.700514,174.294344 Z M697.929306,182.825835 C697.929306,181.122742 698.266706,179.588374 698.941517,178.222686 C699.616327,176.856998 700.564261,175.807309 701.785347,175.073586 C703.006433,174.339864 704.409589,173.973008 705.994859,173.973008 C708.340629,173.973008 710.24453,174.728142 711.70662,176.238432 C713.168709,177.748722 713.958654,179.751701 714.076478,182.247429 L714.092545,183.163239 C714.092545,184.877044 713.763178,186.408734 713.104434,187.758355 C712.445691,189.107976 711.503112,190.15231 710.276671,190.891388 C709.05023,191.630466 707.633684,192 706.026992,192 C703.574109,192 701.611297,191.183277 700.138496,189.549807 C698.665695,187.916337 697.929306,185.739302 697.929306,183.018638 L697.929306,182.825835 Z M701.833548,183.163239 C701.833548,184.952023 702.203081,186.352501 702.942159,187.364717 C703.681238,188.376933 704.709505,188.883033 706.026992,188.883033 C707.34448,188.883033 708.370069,188.3689 709.103792,187.340617 C709.837514,186.312334 710.20437,184.807422 710.20437,182.825835 C710.20437,181.069186 709.826803,179.67674 709.071658,178.648458 C708.316513,177.620175 707.290923,177.106041 705.994859,177.106041 C704.720216,177.106041 703.708016,177.612141 702.958226,178.624357 C702.208437,179.636573 701.833548,181.149519 701.833548,183.163239 Z M721.017352,174.294344 L721.12982,176.302699 C722.415174,174.749564 724.102175,173.973008 726.190874,173.973008 C729.811286,173.973008 731.653599,176.045609 731.717866,180.190874 L731.717866,191.678663 L727.813625,191.678663 L727.813625,180.41581 C727.813625,179.312548 727.575302,178.495825 727.09865,177.965617 C726.621998,177.435409 725.842765,177.170308 724.760925,177.170308 C723.186367,177.170308 722.0135,177.882598 721.242288,179.307198 L721.242288,191.678663 L717.338046,191.678663 L717.338046,174.294344 L721.017352,174.294344 Z M746.08162,191.678663 C745.910239,191.346614 745.760283,190.805702 745.631748,190.055913 C744.38924,191.351977 742.868261,192 741.068766,192 C739.322828,192 737.898249,191.501933 736.794987,190.505784 C735.691725,189.509635 735.140103,188.277857 735.140103,186.810411 C735.140103,184.95736 735.828292,183.535459 737.204692,182.544666 C738.581091,181.553873 740.549259,181.058483 743.109254,181.058483 L745.503213,181.058483 L745.503213,179.917738 C745.503213,179.01799 745.251502,178.297668 744.748072,177.756748 C744.244642,177.215828 743.478797,176.945373 742.450514,176.945373 C741.561478,176.945373 740.833122,177.167628 740.265424,177.612147 C739.697726,178.056665 739.413882,178.621676 739.413882,179.307198 L735.50964,179.307198 C735.50964,178.353894 735.825618,177.462194 736.457584,176.632069 C737.089549,175.801945 737.949116,175.151245 739.036311,174.679949 C740.123506,174.208652 741.33654,173.973008 742.67545,173.973008 C744.710593,173.973008 746.333327,174.484464 747.543702,175.507391 C748.754076,176.530318 749.375321,177.968286 749.407455,179.821337 L749.407455,187.661954 C749.407455,189.2258 749.627033,190.473646 750.066195,191.405527 L750.066195,191.678663 L746.08162,191.678663 Z M741.791774,188.866967 C742.562986,188.866967 743.288664,188.679522 743.96883,188.304627 C744.648997,187.929732 745.160452,187.42631 745.503213,186.794344 L745.503213,183.51671 L743.398458,183.51671 C741.952435,183.51671 740.865256,183.768421 740.136889,184.271851 C739.408522,184.775281 739.044344,185.48757 739.044344,186.40874 C739.044344,187.15853 739.293378,187.755675 739.791452,188.200193 C740.289527,188.644711 740.956294,188.866967 741.791774,188.866967 Z M764.028278,189.975578 C762.882171,191.3252 761.254081,192 759.143959,192 C757.258774,192 755.831517,191.448377 754.862147,190.345116 C753.892776,189.241854 753.408098,187.645897 753.408098,185.557198 L753.408098,174.294344 L757.312339,174.294344 L757.312339,185.508997 C757.312339,187.715521 758.22814,188.818766 760.059769,188.818766 C761.955665,188.818766 763.235644,188.13861 763.899743,186.778278 L763.899743,174.294344 L767.803985,174.294344 L767.803985,191.678663 L764.124679,191.678663 L764.028278,189.975578 Z M776.672879,170.068766 L776.672879,174.294344 L779.741645,174.294344 L779.741645,177.186375 L776.672879,177.186375 L776.672879,186.890746 C776.672879,187.554845 776.80409,188.034167 777.066517,188.328728 C777.328943,188.623288 777.797554,188.770566 778.472365,188.770566 C778.922239,188.770566 779.377461,188.71701 779.838046,188.609897 L779.838046,191.630463 C778.94901,191.876822 778.092121,192 777.267352,192 C774.268194,192 772.768638,190.345132 772.768638,187.035347 L772.768638,177.186375 L769.90874,177.186375 L769.90874,174.294344 L772.768638,174.294344 L772.768638,170.068766 L776.672879,170.068766 Z M792.466581,186.955013 C792.466581,186.25878 792.180059,185.728579 791.607005,185.364396 C791.033952,185.000212 790.08334,184.678879 788.755141,184.400386 C787.426943,184.121892 786.318342,183.768425 785.429306,183.339974 C783.479853,182.397382 782.505141,181.031714 782.505141,179.242931 C782.505141,177.743352 783.137097,176.490151 784.401028,175.48329 C785.664959,174.47643 787.271627,173.973008 789.22108,173.973008 C791.299068,173.973008 792.978036,174.487141 794.258033,175.515424 C795.538031,176.543707 796.178021,177.877241 796.178021,179.516067 L792.273779,179.516067 C792.273779,178.766277 791.99529,178.142355 791.438303,177.64428 C790.881317,177.146206 790.14225,176.897172 789.22108,176.897172 C788.364177,176.897172 787.665277,177.095328 787.124357,177.491645 C786.583438,177.887963 786.312982,178.418163 786.312982,179.082262 C786.312982,179.682094 786.564693,180.148027 787.068123,180.480077 C787.571554,180.812127 788.58911,181.146849 790.120823,181.484254 C791.652536,181.82166 792.854859,182.223327 793.727828,182.689267 C794.600797,183.155208 795.24882,183.714864 795.671915,184.368252 C796.095011,185.02164 796.306555,185.814263 796.306555,186.746144 C796.306555,188.309991 795.658533,189.57658 794.362468,190.545951 C793.066403,191.515322 791.368691,192 789.26928,192 C787.84468,192 786.575413,191.742933 785.46144,191.228792 C784.347467,190.71465 783.479866,190.007717 782.858612,189.107969 C782.237358,188.208222 781.926735,187.238866 781.926735,186.199871 L785.718509,186.199871 C785.772065,187.121041 786.120177,187.830653 786.762853,188.328728 C787.40553,188.826802 788.257064,189.075835 789.317481,189.075835 C790.345763,189.075835 791.127675,188.880358 791.663239,188.489396 C792.198803,188.098434 792.466581,187.586978 792.466581,186.955013 Z" transform="translate(-563 -167)"/>
</svg>
