<svg xmlns="http://www.w3.org/2000/svg" width="234" height="36" viewBox="0 0 234 36">
  <g fill="#01FFFF">
    <polygon points="9.031 8.522 0 17.669 9.031 26.783 11.095 26.783 11.095 26.495 2.399 17.601 11.095 8.793 11.095 8.522"/>
    <path d="M23.3536719 28C18.4810727 28 16.026455 24.9859221 16.026455 18.2434471 16.026455 11.5009722 18.627617 8.52173913 23.4635801 8.52173913 25.0071882 8.54428312 26.543278 8.73128927 28.0430906 9.07925644L27.5485035 10.9782998C26.2433571 10.5807116 24.8878437 10.3521648 23.5185342 10.2988255 19.5984732 10.2988255 18.1330299 12.5288948 18.1330299 18.2260247 18.1330299 24.4458272 19.9648341 26.1532239 23.408626 26.1532239 24.9641501 26.1028829 26.4945784 25.7656095 27.9148643 25.1601462L28.3544974 27.0417671C26.7354433 27.6212272 25.0276378 27.9449113 23.2987177 28M38.2513351 28C33.6756245 28 30.8201058 25.4214825 30.8201058 18.278292 30.8201058 11.1351015 33.8476437 8.52173913 38.2513351 8.52173913 42.6550265 8.52173913 45.6137566 10.7169635 45.6137566 18.278292 45.5965547 25.4563273 42.758238 28 38.2513351 28M38.2513351 10.2117135C34.9141627 10.2117135 32.8499323 11.953955 32.8499323 18.278292 32.8499323 24.6026289 34.7765473 26.2577584 38.2513351 26.2577584 41.7261228 26.2577584 43.5839301 24.4109823 43.5839301 18.2260247 43.5839301 11.6055067 41.3132767 10.1594462 38.2513351 10.1594462M62.0943225 27.65L62.0943225 26.0575 61.911459 26.0575C60.1445349 27.1698155 58.1131126 27.8379008 56.0049705 28 52.3477021 28 49.3121693 26.4775 49.3121693 18.48 49.3121693 10.4825 53.1523012 8.4175 57.3947325 8.4175 59.0072914 8.47014691 60.6004016 8.77152211 62.1126088 9.31L62.1126088.42 64.1058201 0 64.1058201 27.65 62.0943225 27.65zM62.0943225 10.99C60.539508 10.4776248 58.9107892 10.2001323 57.2667281 10.1675 54.3043407 10.1675 51.378526 11.515 51.378526 18.48 51.378526 24.9025 53.3534509 26.2325 56.242693 26.2325 57.4495916 26.2325 58.6199175 25.9875 61.9846044 24.3775L62.0943225 10.99zM76.4370812 28C71.2676724 28 69.037037 24.9886156 69.037037 18.7395578 69.037037 11.7768194 71.6217415 8.52173913 76.2954536 8.52173913 80.1193999 8.52173913 82.5978836 10.6453744 82.5978836 15.4844776 82.5978836 16.006683 82.5978836 17.364417 82.5978836 18.4088278L71.214562 18.6525236C71.214562 24.5186308 72.9849075 26.2245017 76.5255985 26.2245017 78.3479058 26.1169674 80.1409471 25.7232307 81.836635 25.058243L82.261518 26.868555C80.4080327 27.4904915 78.4796358 27.8708795 76.5255985 28M80.7744277 15.2755954C80.7744277 11.7942262 79.1457099 10.1579827 76.3839709 10.1579827 73.3035697 10.1579827 71.3915966 11.8986673 71.2499689 17.1207211L80.7390208 16.9466527C80.7390208 16.232972 80.7390208 15.4670708 80.7390208 15.327816"/>
    <polygon points="88.342 8.522 97.392 17.669 88.342 26.783 86.296 26.783 86.296 26.495 94.957 17.703 86.296 8.793 86.296 8.522"/>
    <path d="M125.004664 28L125.004664 13.0589864C125.004664 11.1802825 124.577816 10.4358903 122.230153 10.4358903 120.115887 10.5561695 118.058307 11.1628088 116.218711 12.2082526L116.218711 28 114.262325 28 114.262325 13.0589864C114.262325 11.109388 113.728765 10.4358903 111.701237 10.4358903 109.535678 10.584412 107.426265 11.1884619 105.511942 12.2082526L105.511942 28 103.555556 28 103.555556 8.85848795 105.511942 8.85848795 105.511942 10.6308502 105.689795 10.6308502C107.817262 9.4343115 110.188227 8.73154828 112.626074 8.57491 114.226754 8.57491 115.471727 9.00027693 115.934146 10.7371919L116.111999 10.7371919C118.134919 9.38846302 120.491936 8.62187035 122.923781 8.52173913 125.982857 8.52173913 126.978836 10.1345888 126.978836 12.3323179L126.978836 28 125.004664 28zM139.375686 28C134.799975 28 131.910053 25.4214825 131.910053 18.278292 131.910053 11.1351015 134.937591 8.52173913 139.341282 8.52173913 143.744974 8.52173913 146.703704 10.7169635 146.703704 18.278292 146.703704 25.4563273 143.813781 28 139.341282 28M139.341282 10.2117135C136.00411 10.2117135 133.939879 11.953955 133.939879 18.278292 133.939879 24.6026289 135.900898 26.2577584 139.375686 26.2577584 142.850474 26.2577584 144.708281 24.4109823 144.708281 18.2260247 144.708281 11.6055067 142.437628 10.1594462 139.375686 10.1594462M163.16164 28L163.16164 13.0198417C163.16164 11.1362156 162.769089 10.3898732 160.235352 10.3898732 157.914352 10.4615073 155.641904 11.0698756 153.597675 12.1668789L153.597675 28 151.634921 28 151.634921 8.80833812 153.597675 8.80833812 153.597675 10.5853439 153.776107 10.5853439C155.958283 9.34635656 158.404193 8.63995105 160.913395 8.5240172 163.411445 8.47070703 165.195767 9.34143984 165.195767 12.3623496L165.195767 28 163.16164 28zM180.857201 27.7019528L180.68722 26.2467812 180.517238 26.2467812C178.67452 27.2841254 176.630152 27.8831589 174.533893 28 171.81419 28 170.148372 26.4746996 170.148372 23.1961805 169.917124 20.7780518 171.586526 18.6063486 173.92196 18.2871678L180.619227 17.4982194 180.619227 12.2736274C180.619227 10.8885845 179.939302 10.2749579 178.375473 10.2749579 176.159628 10.4220915 173.968543 10.8399421 171.848186 11.5197433L171.474227 9.76652448C173.769535 9.03941607 176.146259 8.62102874 178.545454 8.52173913 181.639116 8.52173913 182.455026 9.90678198 182.455026 12.0281767L182.455026 27.8071459 180.857201 27.7019528zM180.619227 19.1637772L173.174041 19.9877901C172.406235 20.8216244 172.001113 21.9422235 172.052164 23.0909874 172.052164 25.4753649 172.902071 26.3344421 175.315807 26.3344421 177.158533 26.1384891 178.953592 25.6103495 180.619227 24.7740774L180.619227 19.1637772zM201.490974 27.6458498L201.490974 25.8750988 201.309679 25.8750988C199.154541 27.1697677 196.694799 27.901491 194.166667 28 191.084656 28 189.851852 26.7781818 189.851852 24.1928854L189.851852 8.52173913 191.846094 8.52173913 191.846094 23.484585C191.846094 25.361581 192.244942 26.1052964 194.783069 26.1052964 197.110478 26.058203 199.38988 25.449911 201.418456 24.3345455L201.418456 8.52173913 203.412698 8.52173913 203.412698 27.6458498 201.490974 27.6458498zM212.933365 28C210.809524 28 209.894075 26.9855072 209.894075 24.6717518L209.894075 10.2018815 207.111111 10.2018815 207.111111 8.42206967 209.894075 8.42206967 209.894075 4.07932876 211.908062 3.65217391 211.908062 8.42206967 217.766934 8.42206967 217.766934 10.2018815 211.908062 10.2018815 211.908062 24.8675311C211.908062 25.8108314 212.384096 26.0956013 213.18969 26.0956013 214.800556 25.9715973 216.363443 25.5036591 217.766934 24.7251462L218.206349 26.504958C216.576099 27.349283 214.777361 27.8410625 212.933365 27.9466056M227.231803 28C225.424063 27.9367137 223.632613 27.6267387 221.904762 27.0782609L222.345854 25.2347826C223.98359 25.8327217 225.698737 26.1785082 227.435384 26.2608696 229.640847 26.2608696 231.201636 25.2695652 231.201636 23.0782609 231.201636 21.1652174 230.387311 20.3652174 227.910407 19.373913L225.162061 18.2434783C223.361411 17.7542365 222.107751 16.0835345 222.108343 14.173913 222.108343 10.573913 224.551317 8.52173913 228.113988 8.52173913 229.559823 8.55454798 231.000789 8.70575394 232.423123 8.97391304L232.049891 10.8869565C230.701043 10.5038668 229.309915 10.2993067 227.910407 10.2782609 225.738874 10.2782609 223.940574 11.3043478 223.940574 13.8782609 223.940574 15.6173913 224.517387 16 227.096082 17.0956522L229.980149 18.2956522C231.795411 18.9367859 233.010111 20.692681 232.999937 22.6608696 232.999937 26.2608696 230.658753 28 227.231803 28"/>
  </g>
</svg>
