<svg xmlns="http://www.w3.org/2000/svg" width="300" height="51" viewBox="0 0 300 51">
  <g fill="#01FFFF" fill-rule="evenodd">
    <path d="M25.620581,50.5876031 L25.620581,40.8932481 C35.9739613,40.8932481 43.9794701,30.714367 40.0277983,19.9015799 C38.5627882,15.8951417 35.3474767,12.7007157 31.3148438,11.2452219 C20.4332889,7.32304907 10.1878568,15.2746417 10.1859291,25.5588546 L10.1820738,25.5607698 L0.430118765,25.5607698 C0.430118765,9.17305833 16.3640307,-3.58740926 33.6492216,1.77493642 C41.2036616,4.11521728 47.2044199,10.0808269 49.5638571,17.5842806 C54.9593349,34.7552775 42.1154376,50.5876031 25.620581,50.5876031"/>
    <polygon points="25.643 40.92 15.916 40.92 15.916 31.258 15.916 31.257 25.641 31.257 25.643 31.257"/>
    <polygon points="15.915 48.345 8.443 48.345 8.441 48.343 8.441 40.92 15.917 40.92 15.917 48.343"/>
    <polygon points="8.445 40.92 2.182 40.92 2.178 40.918 2.178 34.698 2.182 34.694 8.441 34.694 8.445 34.696"/>
    <path d="M75.6527946 16.8747273L78.5172748 16.8747273C81.707527 16.8747273 84.3310515 17.4971424 86.3223086 18.7285668 88.5333172 20.0519171 89.6532788 22.5703045 89.6532788 26.2128693 89.6532788 29.9645961 88.5294619 32.5978909 86.314598 34.0380637L86.3126704 34.0380637C84.4062297 35.2905545 81.7981263 35.9244603 78.5577553 35.9244603L75.6527946 35.9244603 75.6527946 16.8747273zM90.1197689 15.0036517C87.2360122 13.0157535 83.64481 12.0083986 79.4502549 12.0083986L70.3190015 12.0083986 70.3190015 40.790789 79.4502549 40.790789C83.6351718 40.790789 87.226374 39.7278955 90.1236242 37.6308353 91.69851 36.5181486 92.9379856 34.9649835 93.8054257 33.0153878 94.667083 31.0734526 95.1046583 28.7867952 95.1046583 26.2128693 95.1046583 23.6695853 94.667083 21.4097397 93.8034981 19.4984465 92.9379856 17.5756625 91.6965823 16.0646301 90.1197689 15.0036517zM101.461453 11.6548668C100.582447 11.6548668 99.8268098 11.9632017 99.217674 12.5702958 98.6027553 13.1524934 98.2885492 13.891731 98.2885492 14.7669424 98.2885492 15.6383236 98.6008277 16.389052 99.2138187 16.9980613 99.8268098 17.6070705 100.582447 17.9192356 101.461453 17.9192356 102.338531 17.9192356 103.094168 17.6070705 103.709086 16.9980613 104.322077 16.389052 104.634356 15.6364085 104.634356 14.7669424 104.634356 13.8936461 104.32015 13.1524934 103.709086 12.572211 103.094168 11.9632017 102.338531 11.6548668 101.461453 11.6548668"/>
    <polygon points="98.844 40.792 103.978 40.792 103.978 20.521 98.844 20.521"/>
    <path d="M121.278219,34.1855282 C120.379937,35.1967134 119.229133,35.6889002 117.756412,35.6889002 C116.283692,35.6889002 115.136743,35.1967134 114.253882,34.1855282 C113.372948,33.1800884 112.927662,31.8452474 112.927662,30.2212227 C112.927662,28.5703863 113.372948,27.2183091 114.253882,26.2071239 C115.127105,25.2035992 116.304896,24.6960915 117.756412,24.6960915 C119.229133,24.6960915 120.379937,25.1901934 121.278219,26.209039 C122.172647,27.2221394 122.623716,28.5703863 122.623716,30.2212227 C122.623716,31.8452474 122.172647,33.1800884 121.278219,34.1855282 Z M122.623716,22.2121764 C121.077744,20.8428631 119.346719,20.0461718 117.476904,20.0461718 C114.645194,20.0461718 112.289612,21.0209696 110.477626,22.9399233 C108.642508,24.843556 107.713383,27.2929989 107.713383,30.2212227 C107.713383,33.0824171 108.629014,35.5241995 110.439073,37.4833708 C112.262625,39.3774279 114.6317,40.3369048 117.476904,40.3369048 C119.458523,40.3369048 121.158705,39.7910946 122.544682,38.7071347 L122.544682,39.1744248 C122.544682,40.8559032 122.093613,42.1658477 121.199186,43.0640406 C120.304759,43.9603184 119.069138,44.4161177 117.519312,44.4161177 C115.148309,44.4161177 113.664022,43.4911131 111.853964,41.0627366 L108.359144,44.4007968 L108.453599,44.5310252 C109.207308,45.5843431 110.363895,46.6146795 111.892517,47.5952227 C113.419212,48.5700205 115.339146,49.0660375 117.598346,49.0660375 C120.645952,49.0660375 123.11141,48.1314573 124.927251,46.2910236 C126.752731,44.4390992 127.678,41.9647597 127.678,38.929289 L127.678,20.5192073 L122.623716,20.5192073 L122.623716,22.2121764 Z"/>
    <polygon points="132.073 40.792 137.207 40.792 137.207 20.521 132.073 20.521"/>
    <path d="M134.690772 11.6548668C133.811766 11.6548668 133.056129 11.9632017 132.446993 12.5702958 131.832075 13.1524934 131.517869 13.891731 131.517869 14.7669424 131.517869 15.6383236 131.830147 16.389052 132.443138 16.9980613 133.056129 17.6070705 133.811766 17.9192356 134.690772 17.9192356 135.56785 17.9192356 136.323487 17.6070705 136.936478 16.9980613 137.551397 16.389052 137.863675 15.6364085 137.863675 14.7669424 137.863675 13.8936461 137.549469 13.1524934 136.936478 12.572211 136.323487 11.9632017 135.56785 11.6548668 134.690772 11.6548668M148.460903 15.0417627L143.406618 15.0417627 143.406618 20.5190157 140.470815 20.5190157 140.470815 25.1670204 143.406618 25.1670204 143.406618 33.5897333C143.406618 36.2249432 143.93672 38.1094247 144.981504 39.1914694 146.030143 40.2792596 147.892247 40.8308151 150.513844 40.8308151 151.348515 40.8308151 152.188968 40.8020883 153.008217 40.7503799L153.239534 40.735059 153.239534 36.0889694 151.479594 36.1808954C150.257468 36.1808954 149.442074 35.9683167 149.054617 35.5469895 148.661378 35.119917 148.460903 34.2178938 148.460903 32.8658167L148.460903 25.1670204 153.239534 25.1670204 153.239534 20.5190157 148.460903 20.5190157 148.460903 15.0417627z"/>
    <polygon points="177.315 40.792 182.448 40.792 182.448 12.01 177.315 12.01"/>
    <path d="M234.32013 33.5422383C233.400643 34.5649142 232.46188 35.4516164 231.739013 35.911246L231.739013 35.9131611C231.027712 36.3670454 230.133285 36.5949451 229.075008 36.5949451 227.563735 36.5949451 226.345463 36.0491349 225.356581 34.9211272 224.371555 33.7988648 223.870367 32.358692 223.870367 30.6350809 223.870367 28.9114698 224.363844 27.473212 225.337305 26.3605253 226.314621 25.2401781 227.525182 24.696283 229.036455 24.696283 230.690375 24.696283 232.432965 25.7170438 233.928818 27.4712969L237.321473 24.2385685C235.108536 21.3773741 232.286464 20.0463633 228.916941 20.0463633 226.098725 20.0463633 223.654471 21.065209 221.655503 23.0780037 219.664246 25.0735623 218.656088 27.6168463 218.656088 30.6350809 218.656088 33.6533154 219.664246 36.2023448 221.651648 38.2113093 223.640978 40.224104 226.087159 41.2429497 228.916941 41.2429497 232.635368 41.2429497 235.636711 39.649567 237.656883 36.7290037L234.32013 33.5422383zM244.171166 28.1241625C244.417904 27.1531949 244.867045 26.3469279 245.510879 25.7187674 246.208686 25.0408137 247.112752 24.6960915 248.203799 24.6960915 249.44713 24.6960915 250.410952 25.0465591 251.066351 25.7417489 251.675487 26.3852304 252.01668 27.185752 252.088003 28.1241625L244.171166 28.1241625zM255.391986 23.3516748C254.665264 22.3424048 253.674455 21.5323076 252.444617 20.9386193 251.220563 20.344931 249.792178 20.0461718 248.203799 20.0461718 245.335463 20.0461718 242.991447 21.0975745 241.231507 23.1697381 239.521686 25.2284958 238.656174 27.7851856 238.656174 30.7727782 238.656174 33.8446363 239.606503 36.3879202 241.480174 38.3298554 243.344206 40.2641301 245.838578 41.2446733 248.895823 41.2446733 252.357873 41.2446733 255.201149 39.8523785 257.340835 37.1080066L257.458421 36.9605421 254.106247 33.762286C253.795896 34.135735 253.356393 34.5570622 252.955443 34.9343415 252.448473 35.4092921 251.972344 35.7769958 251.461518 36.027877 250.696243 36.4070715 249.834586 36.5947535 248.870764 36.5947535 247.448162 36.5947535 246.270371 36.1791718 245.370161 35.3594989 244.52778 34.5934495 244.036231 33.5573677 243.903223 32.2799804L257.506612 32.2799804 257.552876 30.4184804C257.552876 29.1008755 257.373605 27.8330637 257.016991 26.6456872 256.660376 25.4544804 256.112925 24.347539 255.391986 23.3516748zM265.994611 33.0446892C266.57676 32.6405981 267.399864 32.4375951 268.44272 32.4375951 269.676412 32.4375951 270.987211 32.684646 272.33849 33.1691722L272.33849 35.1589855C271.222384 36.191237 269.730386 36.7121506 267.906834 36.7121506 267.016263 36.7121506 266.328093 36.5148929 265.851965 36.128038 265.387403 35.7488435 265.158013 35.2643173 265.158013 34.6533929 265.158013 33.9582031 265.431739 33.4315441 265.994611 33.0446892M275.110443 22.0365596C273.554834 20.7170395 271.403582 20.0467463 268.718373 20.0467463 267.008552 20.0467463 265.412462 20.4182802 263.966728 21.1460272 262.630871 21.8201506 261.316217 22.9366676 260.483474 24.3959917L260.535521 24.4591907 263.822155 27.5846722C265.177289 25.439734 266.68278 24.696666 268.67982 24.696666 269.751591 24.696666 270.642162 24.9801043 271.328404 25.5450657 272.006935 26.1042818 272.33849 26.8167077 272.33849 27.7187309L272.33849 28.7031043C271.066244 28.3181645 269.795926 28.124737 268.560306 28.124737 266.006177 28.124737 263.926248 28.7203404 262.382204 29.8981414 260.816957 31.0912633 260.022767 32.7976383 260.022767 34.9693883 260.022767 36.8749361 260.693588 38.4223559 262.01788 39.5714299 263.35181 40.6802864 265.019223 41.2433327 266.973854 41.2433327 268.928486 41.2433327 270.757821 40.4619623 272.417523 39.1213759L272.417523 40.7913636 277.473736 40.7913636 277.473736 27.7589485C277.473736 25.2903543 276.679546 23.3656552 275.110443 22.0365596M297.224577 22.4329901C295.794265 20.8510981 293.785659 20.0467463 291.248878 20.0467463 289.215213 20.0467463 287.559366 20.6270287 286.323746 21.7741877L286.323746 20.5197818 281.28681 20.5197818 281.28681 40.7913636 286.422056 40.7913636 286.422056 29.6108728C286.422056 28.0749438 286.790236 26.8550102 287.51503 25.983629 288.237897 25.1160781 289.232562 24.696666 290.556854 24.696666 291.721151 24.696666 292.602085 25.0720302 293.249773 25.8476552 293.903245 26.6251954 294.2348 27.6995796 294.2348 29.040166L294.2348 40.7913636 299.370046 40.7913636 299.370046 29.040166C299.370046 26.2306799 298.647179 24.0091367 297.224577 22.4329901M161.74546 33.0446892C162.329536 32.6405981 163.150713 32.4375951 164.193568 32.4375951 165.427261 32.4375951 166.739987 32.684646 168.089339 33.1691722L168.089339 35.1589855C166.973232 36.191237 165.481235 36.7121506 163.657683 36.7121506 162.769039 36.7121506 162.078942 36.5148929 161.602814 36.128038 161.138251 35.7488435 160.908862 35.2643173 160.908862 34.6533929 160.908862 33.9582031 161.182587 33.4315441 161.74546 33.0446892M170.861292 22.0365596C169.305682 20.7170395 167.154431 20.0467463 164.469222 20.0467463 162.759401 20.0467463 161.163311 20.4182802 159.717577 21.1460272 158.381719 21.8201506 157.067066 22.9366676 156.236251 24.3959917L156.286369 24.4591907 159.573004 27.5846722C160.928138 25.439734 162.433629 24.696666 164.430669 24.696666 165.502439 24.696666 166.393011 24.9801043 167.079253 25.5450657 167.757784 26.1042818 168.089339 26.8167077 168.089339 27.7187309L168.089339 28.7031043C166.817093 28.3181645 165.546775 28.124737 164.311155 28.124737 161.757025 28.124737 159.677097 28.7203404 158.133053 29.8981414 156.567806 31.0912633 155.775544 32.7976383 155.775544 34.9693883 155.775544 36.8749361 156.444436 38.4223559 157.768728 39.5714299 159.102659 40.6802864 160.770071 41.2433327 162.724703 41.2433327 164.679335 41.2433327 166.50867 40.4619623 168.168372 39.1213759L168.168372 40.7913636 173.224584 40.7913636 173.224584 27.7589485C173.224584 25.2903543 172.430395 23.3656552 170.861292 22.0365596M201.077702 16.777439C195.743909 16.777439 191.406708 21.0883819 191.406708 26.3875285 191.406708 31.68476 195.743909 35.9957029 201.077702 35.9957029 206.411496 35.9957029 210.750624 31.68476 210.750624 26.3875285 210.750624 21.0883819 206.411496 16.777439 201.077702 16.777439M201.077702 41.22399C192.844731 41.22399 186.144238 34.568936 186.144238 26.3875285 186.144238 18.204206 192.844731 11.5510671 201.077702 11.5510671 209.312601 11.5510671 216.013094 18.204206 216.013094 26.3875285 216.013094 34.568936 209.312601 41.22399 201.077702 41.22399"/>
  </g>
</svg>
