<svg xmlns="http://www.w3.org/2000/svg" width="138" height="38" viewBox="0 0 138 38">
  <g fill="#01FFFF" fill-rule="evenodd">
    <path d="M26.7111861 16.2800296L15.1959065 16.2800296C14.8988224 16.2800296 14.6577919 16.5241447 14.6577919 16.8208383L14.6577919 22.4805508C14.6577919 22.7791222 14.8988224 23.0213594 15.1959065 23.0213594L19.687669 23.0213594 19.687669 30.0518715C19.687669 30.0518715 18.678704 30.3973881 15.8891028 30.3973881 12.598756 30.3973881 8.00236012 29.1899578 8.00236012 19.0328958 8.00236012 8.87395597 12.7893383 7.53695687 17.2829692 7.53695687 21.1712212 7.53695687 22.8490925 8.2242345 23.9141111 8.55660647 24.2485642 8.65800809 24.5587275 8.32375831 24.5587275 8.02518688L25.8423552 2.55701078C25.8423552 2.41805301 25.7975123 2.24905031 25.6386937 2.13638185 25.203344 1.82466577 22.5632191.339319856 15.8891028.339319856 8.20228466.339319856.315541979 3.62736119.315541979 19.4291132.315541979 35.2308652 9.34390981 37.5856361 16.9522529 37.5856361 23.25081 37.5856361 27.0736661 34.8797152 27.0736661 34.8797152 27.2306162 34.7914582 27.2474323 34.5698769 27.2474323 34.4703531L27.2474323 16.8208383C27.2474323 16.5241447 27.0082702 16.2800296 26.7111861 16.2800296M86.0583175 2.23308895C86.0583175 1.93263971 85.8210239 1.68852471 85.5239398 1.68852471L79.0385373 1.68852471C78.7433216 1.68852471 78.5022911 1.93263971 78.5022911 2.23308895L78.5041596 14.8256676 68.397694 14.8256676 68.397694 2.23308895C68.397694 1.93263971 68.158532 1.68852471 67.8633163 1.68852471L61.3779138 1.68852471C61.0826981 1.68852471 60.8435361 1.93263971 60.8435361 2.23308895L60.8435361 36.3321995C60.8435361 36.6326487 61.0826981 36.8767637 61.3779138 36.8767637L67.8633163 36.8767637C68.158532 36.8767637 68.397694 36.6326487 68.397694 36.3321995L68.397694 21.7472668 78.5041596 21.7472668 78.4854751 36.3321995C78.4854751 36.6326487 78.7265056 36.8767637 79.0235897 36.8767637L85.5220713 36.8767637C85.8191555 36.8767637 86.0564491 36.6326487 86.0583175 36.3321995L86.0583175 2.23308895zM38.9456335 6.7075292C38.9456335 4.36026954 37.0753114 2.46368374 34.7659028 2.46368374 32.4564941 2.46368374 30.5843036 4.36026954 30.5843036 6.7075292 30.5843036 9.05103324 32.4564941 10.9532525 34.7659028 10.9532525 37.0753114 10.9532525 38.9456335 9.05103324 38.9456335 6.7075292M38.4820701 29.1385058L38.4820701 13.3987215C38.4820701 13.10015 38.2429081 12.8541572 37.945824 12.8541572L31.4828429 12.8541572C31.1857588 12.8541572 30.9204384 13.1621177 30.9204384 13.4606891L30.9204384 36.0131599C30.9204384 36.6760261 31.3314982 36.8713181 31.8640075 36.8713181L37.6861089 36.8713181C38.32512 36.8713181 38.4820701 36.5558464 38.4820701 36.0018931L38.4820701 29.1385058zM110.700418 12.9057969L104.265464 12.9057969C103.970248 12.9057969 103.731086 13.1517898 103.731086 13.452239L103.731086 30.1703612C103.731086 30.1703612 102.096189 31.3740359 99.7755697 31.3740359 97.4549503 31.3740359 96.8402291 30.3149524 96.8402291 28.033416L96.8402291 13.452239C96.8402291 13.1517898 96.5991986 12.9057969 96.3058513 12.9057969L89.775606 12.9057969C89.4803903 12.9057969 89.2393598 13.1517898 89.2393598 13.452239L89.2393598 29.1375669C89.2393598 35.9183306 92.9986885 37.5783127 98.1724365 37.5783127 102.415695 37.5783127 105.836833 35.221664 105.836833 35.221664 105.836833 35.221664 106.001257 36.4628949 106.074127 36.6093639 106.148865 36.7558329 106.341316 36.9041797 106.548714 36.9041797L110.702286 36.8872794C110.997502 36.8872794 111.238533 36.6431644 111.238533 36.3408374L111.236664 13.452239C111.236664 13.1517898 110.995634 12.9057969 110.700418 12.9057969M125.748383 31.3537556C123.517449 31.2842767 122.002133 30.2665049 122.002133 30.2665049L122.002133 19.4691105C122.002133 19.4691105 123.496896 18.5489847 125.327981 18.3837376 127.646732 18.175301 129.877665 18.8776011 129.877665 24.4321563 129.877665 30.2927942 128.870569 31.447646 125.748383 31.3537556M128.285743 12.1419048C124.631048 12.1419048 122.146004 13.7793531 122.146004 13.7793531L122.146004 2.23271339C122.146004 1.93226415 121.904974 1.68814915 121.609758 1.68814915L115.109408 1.68814915C114.812324 1.68814915 114.573162 1.93226415 114.573162 2.23271339L114.573162 36.3318239C114.573162 36.6341509 114.812324 36.8763881 115.109408 36.8763881L119.621723 36.8763881C119.823516 36.8763881 119.97673 36.7731087 120.092574 36.5872058 120.202812 36.4031806 120.365368 35.0154807 120.365368 35.0154807 120.365368 35.0154807 123.024177 37.5486433 128.057791 37.5486433 133.965842 37.5486433 137.355217 34.5347619 137.355217 24.0246721 137.355217 13.5145822 131.942306 12.1419048 128.285743 12.1419048M57.1172791 12.852655L52.2536943 12.852655C52.2536943 12.852655 52.2480889 6.39675202 52.2480889 6.39487421 52.2480889 6.15075921 52.1210341 6.0268239 51.8407661 6.0268239L45.2133611 6.0268239C44.9536461 6.0268239 44.8153805 6.14137017 44.8153805 6.3911186L44.8153805 13.0629695C44.8153805 13.0629695 41.4951384 13.8704268 41.270924 13.9342722 41.0448411 13.9999955 40.8822856 14.2084322 40.8822856 14.4563028L40.8822856 18.6475696C40.8822856 18.9498967 41.1214477 19.1940117 41.4185318 19.1940117L44.8153805 19.1940117 44.8153805 29.2815948C44.8153805 36.7740476 50.0470506 37.5120261 53.574691 37.5120261 55.1890349 37.5120261 57.1172791 36.9899955 57.4349162 36.8716936 57.6273669 36.8022147 57.7394741 36.5994115 57.7394741 36.3834636L57.7450795 31.76969C57.7450795 31.4692408 57.4928382 31.2251258 57.2088333 31.2251258 56.9229599 31.2251258 56.1998683 31.3415499 55.4524869 31.3415499 53.0627347 31.3415499 52.2536943 30.2261321 52.2536943 28.7802201L52.2536943 19.1940117 57.1172791 19.1940117C57.4143632 19.1940117 57.6553937 18.9498967 57.6553937 18.6475696L57.6553937 13.3953414C57.6553937 13.0948922 57.4143632 12.852655 57.1172791 12.852655"/>
  </g>
</svg>
