<svg xmlns="http://www.w3.org/2000/svg" width="155" height="36" viewBox="0 0 155 36">
  <path fill="#01FFFF" fill-rule="evenodd" d="M142.998573,8.7611621 C142.722341,8.73472697 142.43545,8.72150943 142.1379,8.72150943 C140.75889,8.72150943 139.566064,9.05433629 138.559386,9.72 C137.552708,10.3856637 136.594311,11.1803727 135.684164,12.1041509 C135.16014,11.0173531 134.44996,10.1818897 133.553603,9.59773585 C132.657246,9.01358198 131.47821,8.72150943 130.016459,8.72150943 C128.665029,8.72150943 127.506677,9.02716675 126.54137,9.63849057 C125.576063,10.2498144 124.66593,10.9765996 123.810943,11.8188679 L123.645463,11.8188679 L123.231762,9.21056604 L118.267349,9.21056604 L118.267349,29.4249057 L124.348754,29.4249057 L124.348754,15.7720755 C125.617444,14.467918 126.775795,13.8158491 127.823843,13.8158491 C128.70641,13.8158491 129.34764,14.0875445 129.747553,14.6309434 C130.147466,15.1743423 130.34742,16.1796153 130.34742,17.6467925 L130.34742,29.4249057 L136.428826,29.4249057 L136.428826,15.7720755 C137.752676,14.467918 138.924817,13.8158491 139.945285,13.8158491 C140.827851,13.8158491 141.469082,14.0875445 141.868995,14.6309434 C142.268908,15.1743423 142.468861,16.1796153 142.468861,17.6467925 L142.468861,29.3043977 C139.251889,33.3787993 134.227821,36 128.582295,36 C118.871862,36 111,28.245234 111,18.6792453 C111,9.1132566 118.871862,1.35849057 128.582295,1.35849057 C134.548016,1.35849057 139.819786,4.28545424 142.998573,8.7611621 Z M156.700178,29.9139623 C155.238427,29.9139623 153.873227,29.6762288 152.604537,29.2007547 C151.335848,28.7252806 150.232656,28.0324574 149.294929,27.1222642 C148.357202,26.2120709 147.626337,25.1049122 147.102313,23.8007547 C146.578289,22.4965973 146.316281,21.0022726 146.316281,19.3177358 C146.316281,17.687539 146.592079,16.2135915 147.143683,14.8958491 C147.695287,13.5781066 148.419257,12.4641555 149.315614,11.5539623 C150.211971,10.643769 151.239318,9.94415339 152.397687,9.45509434 C153.556056,8.96603529 154.755777,8.72150943 155.996886,8.72150943 C157.458637,8.72150943 158.734203,8.96603529 159.823621,9.45509434 C160.913039,9.94415339 161.823173,10.6233919 162.554048,11.4928302 C163.284924,12.3622685 163.829625,13.3879186 164.188167,14.5698113 C164.54671,15.751704 164.725979,17.0354648 164.725979,18.4211321 C164.725979,18.964531 164.698399,19.4807523 164.643238,19.9698113 C164.588078,20.4588704 164.532918,20.8256592 164.477758,21.0701887 L152.190836,21.0701887 C152.466638,22.5373658 153.080289,23.617355 154.031806,24.3101887 C154.983323,25.0030223 156.14857,25.349434 157.52758,25.349434 C158.989331,25.349434 160.46485,24.9011366 161.954181,24.0045283 L163.981317,27.6316981 C162.933269,28.3381167 161.768022,28.8950923 160.485543,29.3026415 C159.203063,29.7101907 157.941287,29.9139623 156.700178,29.9139623 Z M152.149466,17.1169811 L159.554715,17.1169811 C159.554715,15.9758434 159.292707,15.052079 158.768683,14.3456604 C158.244659,13.6392418 157.362106,13.2860377 156.120996,13.2860377 C155.155689,13.2860377 154.30761,13.5984874 153.576735,14.2233962 C152.845859,14.848305 152.370108,15.8128237 152.149466,17.1169811 Z M173.841192,29.9139623 C172.793144,29.9139623 171.910591,29.750945 171.193505,29.4249057 C170.47642,29.0988663 169.904139,28.6437765 169.476646,28.0596226 C169.049153,27.4754688 168.73888,26.7690607 168.545819,25.9403774 C168.352757,25.111694 168.256228,24.1811372 168.256228,23.1486792 L168.256228,0.855849057 L174.337633,0.855849057 L174.337633,23.3932075 C174.337633,24.0181163 174.454848,24.452829 174.689279,24.6973585 C174.923711,24.941888 175.165034,25.0641509 175.413256,25.0641509 L175.764902,25.0641509 C175.861433,25.0641509 175.992437,25.0369814 176.157918,24.9826415 L176.90258,29.4249057 C176.571618,29.5607554 176.151026,29.6762259 175.640792,29.7713208 C175.130558,29.8664156 174.530697,29.9139623 173.841192,29.9139623 Z M185.438612,29.9139623 C184.087182,29.9139623 182.701297,29.6558516 181.280916,29.1396226 C179.860536,28.6233936 178.62634,27.9441552 177.578292,27.1018868 L180.308719,23.3524528 C181.246446,24.0588715 182.142789,24.5886775 182.997776,24.9418868 C183.852762,25.2950961 184.721526,25.4716981 185.604093,25.4716981 C186.514239,25.4716981 187.176155,25.3222656 187.589858,25.0233962 C188.003561,24.7245268 188.210409,24.3033989 188.210409,23.76 C188.210409,23.4339606 188.093195,23.1418881 187.858763,22.8837736 C187.624332,22.6256591 187.307164,22.3879256 186.907251,22.170566 C186.507338,21.9532065 186.059166,21.7562273 185.562722,21.5796226 C185.066279,21.403018 184.556052,21.2060388 184.032028,20.9886792 C183.397684,20.7441497 182.763348,20.4588696 182.129004,20.1328302 C181.494659,19.8067908 180.915483,19.4060401 180.391459,18.930566 C179.867435,18.455092 179.439948,17.8981164 179.108986,17.2596226 C178.778023,16.6211289 178.612544,15.8807589 178.612544,15.0384906 C178.612544,14.1147124 178.798708,13.2588719 179.171041,12.4709434 C179.543374,11.6830149 180.074285,11.0173612 180.76379,10.4739623 C181.453295,9.93056332 182.280689,9.50264307 183.245996,9.19018868 C184.211304,8.87773429 185.286916,8.72150943 186.472865,8.72150943 C188.044937,8.72150943 189.423926,8.98641245 190.609875,9.51622642 C191.795824,10.0460404 192.830067,10.6369779 193.712633,11.2890566 L190.982206,14.8754717 C190.237541,14.3320728 189.506676,13.9109449 188.789591,13.6120755 C188.072505,13.3132061 187.355431,13.1637736 186.638345,13.1637736 C185.093853,13.1637736 184.321619,13.6935796 184.321619,14.7532075 C184.321619,15.0792469 184.431938,15.3577347 184.65258,15.5886792 C184.873222,15.8196238 185.169705,16.0301877 185.542037,16.2203774 C185.91437,16.410567 186.341857,16.5939614 186.824511,16.770566 C187.307164,16.9471707 187.810496,17.1305651 188.33452,17.3207547 C188.996445,17.5652842 189.651465,17.843772 190.2996,18.1562264 C190.947735,18.4686808 191.5407,18.8558467 192.078514,19.3177358 C192.616328,19.779625 193.05071,20.3433929 193.381673,21.0090566 C193.712635,21.6747203 193.878114,22.4694293 193.878114,23.3932075 C193.878114,24.3169858 193.698845,25.1728262 193.340302,25.9607547 C192.98176,26.7486832 192.443954,27.4347141 191.726868,28.0188679 C191.009783,28.6030218 190.127229,29.064904 189.079181,29.4045283 C188.031134,29.7441526 186.817623,29.9139623 185.438612,29.9139623 Z M197.036032,29.4249057 L197.036032,9.21056604 L203.117438,9.21056604 L203.117438,29.4249057 L197.036032,29.4249057 Z M200.05605,6.2354717 C199.035582,6.2354717 198.194398,5.94339915 197.532473,5.35924528 C196.870548,4.77509142 196.539591,4.02113669 196.539591,3.09735849 C196.539591,2.17358029 196.870548,1.42641795 197.532473,0.855849057 C198.194398,0.285280166 199.035582,0 200.05605,0 C201.104098,0 201.952176,0.285280166 202.600311,0.855849057 C203.248446,1.42641795 203.572509,2.17358029 203.572509,3.09735849 C203.572509,4.02113669 203.248446,4.77509142 202.600311,5.35924528 C201.952176,5.94339915 201.104098,6.2354717 200.05605,6.2354717 Z M216.700623,29.9139623 C215.266452,29.9139623 213.935727,29.6762288 212.708407,29.2007547 C211.481088,28.7252806 210.412371,28.0392498 209.502224,27.1426415 C208.592077,26.2460333 207.875003,25.1388745 207.350979,23.8211321 C206.826955,22.5033896 206.564947,21.0022726 206.564947,19.3177358 C206.564947,17.6331991 206.854534,16.1320821 207.433719,14.8143396 C208.012903,13.4965972 208.792032,12.3894384 209.77113,11.4928302 C210.750227,10.5962219 211.887894,9.91019106 213.184164,9.43471698 C214.480434,8.95924291 215.831844,8.72150943 217.238434,8.72150943 C218.507124,8.72150943 219.631,8.92528098 220.610098,9.33283019 C221.589195,9.7403794 222.464854,10.2566006 223.2371,10.8815094 L220.382562,14.7532075 C219.417255,13.9652791 218.493332,13.5713208 217.610765,13.5713208 C216.121434,13.5713208 214.949293,14.087542 214.094306,15.12 C213.23932,16.152458 212.811833,17.5516893 212.811833,19.3177358 C212.811833,21.0837824 213.246215,22.4830137 214.114991,23.5154717 C214.983768,24.5479297 216.080065,25.0641509 217.403915,25.0641509 C218.06584,25.0641509 218.70707,24.9215109 219.327625,24.6362264 C219.948179,24.350942 220.53425,24.0045303 221.085854,23.5969811 L223.48532,27.509434 C222.464853,28.3788723 221.361661,28.9969793 220.175712,29.3637736 C218.989763,29.7305679 217.831411,29.9139623 216.700623,29.9139623 Z M234.048488,29.9139623 C232.752218,29.9139623 231.497337,29.6762288 230.283808,29.2007547 C229.070279,28.7252806 228.001562,28.0392498 227.077625,27.1426415 C226.153688,26.2460333 225.415928,25.1388745 224.864324,23.8211321 C224.31272,22.5033896 224.036922,21.0022726 224.036922,19.3177358 C224.036922,17.6331991 224.31272,16.1320821 224.864324,14.8143396 C225.415928,13.4965972 226.153688,12.3894384 227.077625,11.4928302 C228.001562,10.5962219 229.070279,9.91019106 230.283808,9.43471698 C231.497337,8.95924291 232.752218,8.72150943 234.048488,8.72150943 C235.344757,8.72150943 236.592743,8.95924291 237.792482,9.43471698 C238.992221,9.91019106 240.054043,10.5962219 240.97798,11.4928302 C241.901917,12.3894384 242.639677,13.4965972 243.191281,14.8143396 C243.742885,16.1320821 244.018683,17.6331991 244.018683,19.3177358 C244.018683,21.0022726 243.742885,22.5033896 243.191281,23.8211321 C242.639677,25.1388745 241.901917,26.2460333 240.97798,27.1426415 C240.054043,28.0392498 238.992221,28.7252806 237.792482,29.2007547 C236.592743,29.6762288 235.344757,29.9139623 234.048488,29.9139623 Z M234.048488,25.0641509 C235.289597,25.0641509 236.22731,24.5479297 236.861655,23.5154717 C237.496,22.4830137 237.813167,21.0837824 237.813167,19.3177358 C237.813167,17.5516893 237.496,16.152458 236.861655,15.12 C236.22731,14.087542 235.289597,13.5713208 234.048488,13.5713208 C232.779798,13.5713208 231.83519,14.087542 231.214635,15.12 C230.594081,16.152458 230.283808,17.5516893 230.283808,19.3177358 C230.283808,21.0837824 230.594081,22.4830137 231.214635,23.5154717 C231.83519,24.5479297 232.779798,25.0641509 234.048488,25.0641509 Z M247.507562,29.4249057 L247.507562,9.21056604 L252.471975,9.21056604 L252.885676,11.7781132 L253.051157,11.7781132 C253.933723,10.9630148 254.899016,10.2498144 255.947064,9.63849057 C256.995112,9.02716675 258.222413,8.72150943 259.629004,8.72150943 C261.863,8.72150943 263.483313,9.44150223 264.489991,10.8815094 C265.496669,12.3215166 266,14.3184778 266,16.8724528 L266,29.4249057 L259.918594,29.4249057 L259.918594,17.6467925 C259.918594,16.1796153 259.718641,15.1743423 259.318728,14.6309434 C258.918815,14.0875445 258.277584,13.8158491 257.395018,13.8158491 C256.622772,13.8158491 255.960857,13.9856587 255.409253,14.325283 C254.857648,14.6649074 254.250893,15.1471667 253.588968,15.7720755 L253.588968,29.4249057 L247.507562,29.4249057 Z" transform="translate(-111)"/>
</svg>
