<svg xmlns="http://www.w3.org/2000/svg" width="174" height="24" viewBox="0 0 174 24">
  <g fill="#01FFFF" stroke="#01FFFF" transform="translate(1 1)">
    <path d="M90.6572042 11.4949494L83.8266219 9.99482238C80.4113308 9.25379577 79.4815133 7.84403782 79.4815133 5.85591764 79.4815133 2.4580395 82.0742736 1.10250301 86.562431 1.10250301 91.2830429 1.10250301 93.33937 2.69299916 94.0009709 5.34985068 94.0724953 5.71132708 94.1619008 6.09087729 94.197663 6.50657515 94.197663 6.54272279 94.197663 6.74153481 94.4301174 6.74153481L94.5552851 6.74153481C94.7877395 6.74153481 94.7877395 6.56079661 94.7877395 6.52464897 94.7698584 6.12702493 94.7162151 5.69325326 94.6089284 5.25948158 94.0367331 2.69299916 92.1413359.524140776 86.4372633.524140776 81.287505.524140776 78.9271991 2.4580395 78.9271991 5.78362236 78.9271991 8.60313825 80.5722607 9.90445328 83.9339086 10.6093323L90.3711065 11.9829426C93.4645377 12.6516739 94.7519773 13.9891366 94.7519773 16.2483641 94.7519773 18.5437392 93.3930133 21.3994027 87.3491997 21.3994027 82.485539 21.3994027 78.8914368 20.0800139 78.7841502 14.9831967 78.7841502 14.947049 78.7841502 14.748237 78.5695769 14.748237L78.4444092 14.748237C78.2119548 14.748237 78.2119548 14.9289752 78.2119548 14.9651228 78.2834793 17.8930817 79.2848212 21.9596911 87.2240319 21.9596911 94.2334252 21.9596911 95.3062916 18.4714439 95.3062916 16.1760688 95.3062916 13.6818816 93.8042787 12.1817546 90.6572042 11.4949494zM153.241073 13.2661838C153.0265 13.24811 152.937094 13.3927005 152.919213 13.446922 152.507948 17.4231623 148.66351 20.9475572 143.317059 20.9475572 138.024252 20.9475572 133.357284 17.3870147 133.357284 10.7900705 133.357284 4.19312621 138.024252.632583695 143.317059.632583695 148.752915.632583695 151.542368 3.1809923 152.38278 6.25354167 152.400661 6.32583695 152.507948 6.52464897 152.722521 6.47042751 152.919213 6.43427987 152.954975 6.25354167 152.937094 6.16317257 151.774822 1.87967727 148.055552.0722952795 143.334941.0722952795 137.523581.0722952795 132.802969 4.01238801 132.802969 10.8081443 132.802969 17.6039005 137.523581 21.5439933 143.334941 21.5439933 147.966147 21.5439933 152.722521 18.8690679 153.491408 13.5372911 153.509289 13.3746267 153.34836 13.2842576 153.241073 13.2661838zM123.415389.831395714C123.361746.704878975 123.182935.524140776 122.896837.524140776 122.557096.524140776 122.449809.704878975 122.378285.831395714 122.217355 1.10250301 113.705949 19.9534971 113.419851 20.568007 113.366208 20.6764499 113.312565 21.0017787 113.652306 21.0560001 113.956284 21.1102216 114.081452 20.7306714 114.135096 20.6222285 114.188739 20.5137855 116.531164 15.2723778 116.924548 14.4048344 116.96031 14.3144653 117.031835 14.2783177 117.157002 14.2783177L128.672434 14.2783177C128.76184 14.2783177 128.833364 14.3144653 128.869126 14.3867606 129.24463 15.2362301 131.712222 20.7306714 131.765865 20.8571881 131.783746 20.8933358 131.891033 21.1463692 132.230774 21.0560001 132.409585 21.0017787 132.48111 20.8029667 132.409585 20.6403023 131.51553 18.6160345 123.486914.957912453 123.415389.831395714zM128.350574 13.6999555L117.4431 13.6999555C117.353694 13.6999555 117.28217 13.6276602 117.335813 13.5011434 118.068939 11.8925735 122.807432 1.33746267 122.807432 1.30131503 122.861075 1.21094593 122.968362 1.24709357 122.986243 1.30131503 123.022005 1.37361031 127.778379 11.9648687 128.43998 13.446922 128.511504 13.5553649 128.43998 13.6999555 128.350574 13.6999555zM66.875334.524140776L57.3268238.524140776 57.3089427.524140776C57.1301316.542214596 57.0049639.686805155 57.0049639.849469534L57.0049639 2.13271074C57.0049639 2.31344894 57.1480127 2.4580395 57.3089427 2.4580395L57.3268238 2.4580395 66.7859285 2.4580395C71.4886592 2.4580395 73.5807485 5.33177686 73.5807485 10.7719966 73.5807485 17.061686 70.4157929 19.0859538 66.7859285 19.0859538L59.0970532 19.0859538 59.0970532 9.27186959 59.0970532 5.83784382 59.0970532 5.76554854 59.0791721 5.76554854C59.0434099 5.62095798 58.9182422 5.51251506 58.7573122 5.51251506L57.3089427 5.51251506C57.1480127 5.51251506 57.022845 5.62095798 56.9870828 5.76554854L56.9692017 5.76554854 56.9692017 5.83784382 56.9692017 9.27186959 56.9692017 21.0560001 67.1614317 21.0560001C72.8476232 21.0560001 75.8337678 16.5736928 75.8337678 10.7900705 75.86953 4.35579059 72.7939799.524140776 66.875334.524140776zM52.9280719.524140776L51.4797023.524140776C51.3008913.524140776 51.1399613.668731335 51.1399613.867543353L51.1399613 17.7484911C51.1399613 17.9292293 51.1220802 18.0918937 51.1041991 18.0918937 51.086318 18.0918937 50.9790314 17.9834508 50.8717447 17.8388602L37.1032936.795248074C36.996007.650657515 36.7456715.542214596 36.5668605.542214596L34.6893444.542214596C34.5105333.542214596 34.3496034.686805155 34.3496034.885617173L34.3496034 20.7487452C34.3496034 20.9294834 34.4926522 21.0921478 34.6893444 21.0921478L36.1377139 21.0921478C36.316525 21.0921478 36.4774549 20.9475572 36.4774549 20.7487452L36.4774549 3.86779745C36.4774549 3.68705925 36.495336 3.52439487 36.5132171 3.52439487 36.5310982 3.52439487 36.6383849 3.63283779 36.7456715 3.77742835L50.6035282 20.8029667C50.7108148 20.9475572 50.9611503 21.0560001 51.1399613 21.0560001L52.9280719 21.0560001C53.1068829 21.0560001 53.2678129 20.9114096 53.2678129 20.7125976L53.2678129.867543353C53.2499318.686805155 53.1068829.524140776 52.9280719.524140776zM23.9428001.524140776L21.6182564.524140776C21.4394453.524140776 21.2248721.650657515 21.1354665.831395714L12.391606 18.0918937C12.3022005 18.2545581 12.1770327 18.2545581 12.0876272 18.0918937L3.3437667.831395714C3.25436118.668731335 3.03978791.524140776 2.86097686.524140776L.447027634.524140776C.26821658.524140776.107286632.668731335.107286632.867543353L.107286632 20.7306714C.107286632 20.9114096.250335475 21.074074.447027634 21.074074L1.89539717 21.074074C2.07420822 21.074074 2.23513817 20.9294834 2.23513817 20.7306714L2.23513817 3.63283779C2.23513817 3.45209959 2.25301928 3.28943522 2.27090038 3.28943522 2.28878149 3.28943522 2.36030591 3.41595195 2.44971143 3.59669015L11.0862853 20.766819C11.1756908 20.9294834 11.3902641 21.074074 11.5690752 21.074074L12.8386336 21.074074C13.0174447 21.074074 13.232018 20.9475572 13.3214235 20.766819L21.9758785 3.61476397C22.065284 3.45209959 22.1368084 3.30750903 22.1546895 3.30750903 22.1725706 3.30750903 22.1904517 3.45209959 22.1904517 3.65091161L22.1904517 20.7306714C22.1904517 20.9114096 22.3335006 21.074074 22.5301928 21.074074L23.9785623 21.074074C24.1573733 21.074074 24.3183033 20.9294834 24.3183033 20.7306714L24.3183033.867543353C24.2825411.686805155 24.1394922.524140776 23.9428001.524140776zM30.040257.524140776L28.5918875.524140776C28.4130764.524140776 28.2521465.668731335 28.2521465.867543353L28.2521465 20.7306714C28.2521465 20.9114096 28.3951953 21.074074 28.5918875 21.074074L30.040257 21.074074C30.2190681 21.074074 30.379998 20.9294834 30.379998 20.7306714L30.379998.867543353C30.379998.686805155 30.2190681.524140776 30.040257.524140776zM171.96259 20.4957117L157.192797 20.4957117C157.013986 20.4957117 156.853056 20.3511212 156.853056 20.1523091L156.853056 10.9888825C156.853056 10.8081443 156.996105 10.6454799 157.192797 10.6454799L171.122178 10.6454799C171.300989 10.6454799 171.461919 10.5189632 171.461919 10.3562988 171.461919 10.1936344 171.31887 10.0671177 171.122178 10.0671177L157.192797 10.0671177C157.013986 10.0671177 156.853056 9.9225271 156.853056 9.72371509L156.853056 1.44590559C156.853056 1.26516739 156.996105 1.10250301 157.192797 1.10250301L171.783779 1.10250301C171.96259 1.10250301 172.12352.975986273 172.12352.813321894 172.12352.650657515 171.980471.524140776 171.783779.524140776L156.638483.524140776C156.459672.524140776 156.298742.668731335 156.298742.867543353L156.298742 20.7306714C156.298742 20.9114096 156.441791 21.074074 156.638483 21.074074L171.96259 21.074074C172.141401 21.074074 172.302331 20.9475572 172.302331 20.7848928 172.302331 20.6222285 172.141401 20.4957117 171.96259 20.4957117zM108.645596.524140776C108.645596.524140776 98.435485.524140776 98.1136251.524140776 97.8454085.524140776 97.7738841.795248074 97.7738841.975986273L97.7738841 19.1943967 97.7738841 20.568007 97.7738841 20.7306714C97.7738841 20.9114096 97.8990518 21.074074 98.0599818 21.074074 98.2209117 21.074074 98.3460795 20.9294834 98.3460795 20.7306714L98.3460795 20.568007 98.3460795 19.2305443 98.3460795 12.0552378C98.3460795 11.8022044 98.4891283 11.7118353 98.6142961 11.7118353L107.840946 11.7118353C112.883418 11.7118353 114.278144 8.89231937 114.278144 6.12702493 114.278144 3.07254938 112.972824.524140776 108.645596.524140776zM108.001876 11.1515469L98.6500583 11.1515469C98.6500583 11.1515469 98.3460795 11.1515469 98.3460795 10.8081443L98.3460795 1.31938885C98.3460795 1.17479829 98.3997228 1.12057683 98.5427716 1.12057683L108.824407 1.12057683C111.864195 1.12057683 113.72383 2.67492534 113.72383 6.16317257 113.705949 9.25379577 111.810552 11.1515469 108.001876 11.1515469z"/>
  </g>
</svg>
