<svg xmlns="http://www.w3.org/2000/svg" width="131" height="41" viewBox="0 0 131 41">
  <g fill="#01FFFF" fill-rule="evenodd">
    <path fill-rule="nonzero" d="M0 24.2653061C0 20.568088 3.00769874 17.5714286 6.71794872 17.5714286 10.4281987 17.5714286 13.4358974 20.568088 13.4358974 24.2653061 13.4358974 27.9622619 10.428462 30.9591837 6.71794872 30.9591837 3.00769874 30.9591837 0 27.9622619 0 24.2653061zM17.6346154 0L17.6346154 30.9591837 23.3089004 30.9591837 23.3089004 4.71060608C23.3089004 4.71060608 32.0793109 4.71060608 36.3057846 4.71060608L36.3057846 30.9591837 41.9978391 30.9591837 41.9978391 4.71060608C45.7453337 4.71060608 48.934815 4.71060608 50.642007 4.71060608 53.5612337 4.71060608 55.6222231 6.45447303 55.6222231 10.2374285L55.6222231 30.9591837 61.3012821 30.9591837C61.3012821 22.8331967 61.3012821 15.7457666 61.3012821 8.67180355 61.3015473 4.45552196 59.1172326 0 53.5007646 0L17.6346154 0zM73.5113913 4.69068744e-15C67.3633741 4.69068744e-15 65.5 4.05309113 65.5 8.59152863 65.5 13.4397111 67.5296518 17.5236975 73.1165816 17.5236975 78.154662 17.5236975 82.8750856 17.5236975 86.6659505 17.5236975 90.8173054 17.5236975 90.8173054 20.6908599 90.8173054 22.1321115 90.8173054 23.475132 90.8173054 26.2390714 86.7702398 26.2390714 83.5362056 26.2390714 66.0323546 26.2390714 66.0323546 26.2390714 66.0323546 26.2390714 66.0323546 29.640985 66.0323546 30.9591837L89.1529324 30.9591837C94.919176 30.9591837 96.5705128 27.5971434 96.5705128 22.1738334 96.5705128 15.7124947 94.4448191 12.8165243 89.517147 12.8165243 83.7144553 12.8165243 79.6434458 12.8165243 74.8876383 12.8165243 71.196274 12.8165243 71.196274 10.3409409 71.196274 8.69055197 71.196274 7.40324861 71.5623509 4.71060608 75.5197595 4.71060608 79.6764353 4.71060608 95.5063357 4.71060608 95.5063357 4.71060608 95.5063357 2.81516741 95.5063357 1.79192628 95.5063357 0L73.5113913 0z"/>
    <path d="M111.384525,0 C106.237082,0 104.32166,0.815451876 102.910111,1.93188254 C101.369897,3.1502447 99.9591586,4.69687439 99.9294872,9.95611093 L99.9294872,15.5585971 L99.9294872,21.2798695 C99.9294872,26.8518564 101.489122,28.4105253 103.084094,29.7399152 C104.158197,30.5002545 105.936322,31.3665383 111.397473,31.3665383 L125.246721,31.3665383 C125.246721,31.3665383 125.254004,32.3248548 125.249688,32.5787471 C125.246721,34.9459119 124.789242,35.9788711 122.054351,35.9788711 L104.001478,35.9788711 L104.001478,41 L123.898292,41 C129.263146,41 131,38.6317651 131,34.1590865 L131,0 L111.384525,0 Z M125.249688,26.5894029 L113.139722,26.5894029 C109.560545,26.6102708 105.930927,26.8569396 105.837057,22.2590538 C105.833011,22.0688352 105.817906,20.375863 105.837057,15.4585383 C105.853512,11.2881762 105.814669,10.291602 105.837057,9.85979772 C106.036935,6.00807178 107.470332,4.6372137 113.395435,4.77767047 C113.74286,4.78596411 125.249418,4.77767047 125.249418,4.77767047 L125.249418,26.5894029 L125.249688,26.5894029 Z"/>
  </g>
</svg>
