<svg xmlns="http://www.w3.org/2000/svg" width="164" height="140" viewBox="0 0 164 140">
  <g fill="#01FFFF" fill-rule="evenodd">
    <path d="M21.8259448,119.031072 C21.8259448,121.6536 21.4100393,123.912544 20.5782158,125.807972 C19.7463924,127.703401 18.579374,129.185542 17.0771257,130.254439 L21.9190589,134.057706 L19.4794695,136.313565 L13.7622638,131.76456 C12.868364,131.988282 11.9248172,132.100142 10.9315952,132.100142 C8.79616786,132.100142 6.90286678,131.575023 5.25163517,130.524769 C3.60040357,129.474515 2.31854562,127.976839 1.40602289,126.031694 C0.493500161,124.086549 0.0248305505,121.83382 0,119.273438 L0,117.315874 C0,114.705775 0.453150749,112.400223 1.35946584,110.399148 C2.26578094,108.398072 3.54763888,106.866216 5.20507812,105.803533 C6.86251737,104.740851 8.75892222,104.209517 10.8943496,104.209517 C13.079438,104.209517 15.000673,104.737743 16.6581123,105.794212 C18.3155515,106.85068 19.5912019,108.370107 20.4851017,110.352539 C21.3790016,112.334971 21.8259448,114.649845 21.8259448,117.29723 L21.8259448,119.031072 Z M18.2503634,117.278587 C18.2503634,114.084324 17.6140901,111.620303 16.3415243,109.886452 C15.0689586,108.152601 13.2532519,107.285689 10.8943496,107.285689 C8.64718474,107.285689 6.87493078,108.146387 5.57753452,109.867809 C4.28013826,111.589231 3.61282722,113.978678 3.5755814,117.036222 L3.5755814,119.031072 C3.5755814,122.138332 4.2242698,124.586816 5.52166606,126.376598 C6.81906233,128.16638 8.62235401,129.061257 10.9315952,129.061257 C13.2408364,129.061257 15.0286092,128.219202 16.2949673,126.535067 C17.5613254,124.850933 18.2131175,122.436628 18.2503634,119.292081 L18.2503634,117.278587 Z M39.2382812,129.732422 C37.8974315,131.31091 35.9296399,132.100142 33.3348474,132.100142 C31.1870048,132.100142 29.5513168,131.475592 28.4277344,130.226474 C27.304152,128.977355 26.7361616,127.128563 26.7237464,124.680043 L26.7237464,111.555043 L30.168968,111.555043 L30.168968,124.586825 C30.168968,127.644369 31.4104769,129.173118 33.893532,129.173118 C36.5255703,129.173118 38.2760979,128.191239 39.1451672,126.22745 L39.1451672,111.555043 L42.5903888,111.555043 L42.5903888,131.727273 L39.3127725,131.727273 L39.2382812,129.732422 Z M46.910883,121.454723 C46.910883,119.478506 47.2988545,117.70118 48.0748092,116.122692 C48.8507639,114.544204 49.9308767,113.326176 51.3151799,112.468572 C52.6994831,111.610969 54.2793031,111.182173 56.0546875,111.182173 C58.7984633,111.182173 61.0176605,112.132981 62.7123456,114.034624 C64.4070306,115.936267 65.2543605,118.465538 65.2543605,121.622514 L65.2543605,121.864879 C65.2543605,123.828667 64.878804,125.590457 64.1276799,127.150302 C63.3765557,128.710146 62.3026505,129.925067 60.905932,130.795099 C59.5092136,131.665132 57.9045633,132.100142 56.0919331,132.100142 C53.3605726,132.100142 51.147583,131.149335 49.4528979,129.247692 C47.7582128,127.346049 46.910883,124.829206 46.910883,121.697088 L46.910883,121.454723 Z M50.3747275,121.864879 C50.3747275,124.102106 50.8930574,125.898076 51.9297329,127.252841 C52.9664084,128.607606 54.3537946,129.284979 56.0919331,129.284979 C57.842487,129.284979 59.2329769,128.598285 60.2634448,127.224876 C61.2939126,125.851467 61.8091388,123.928102 61.8091388,121.454723 C61.8091388,119.242354 61.2846013,117.449492 60.2355105,116.076083 C59.1864198,114.702674 57.792826,114.01598 56.0546875,114.01598 C54.3537948,114.01598 52.9819275,114.693353 51.9390443,116.048118 C50.8961612,117.402883 50.3747275,119.341784 50.3747275,121.864879 Z M75.1989462,122.386896 L73.0386991,124.642756 L73.0386991,131.727273 L69.5934775,131.727273 L69.5934775,103.090909 L73.0386991,103.090909 L73.0386991,120.410689 L74.8823583,118.192116 L81.1582485,111.555043 L85.348383,111.555043 L77.5081759,119.981889 L86.2609012,131.727273 L82.2197493,131.727273 L75.1989462,122.386896 Z M94.5294331,122.386896 L92.369186,124.642756 L92.369186,131.727273 L88.9239644,131.727273 L88.9239644,103.090909 L92.369186,103.090909 L92.369186,120.410689 L94.2128452,118.192116 L100.488735,111.555043 L104.67887,111.555043 L96.8386628,119.981889 L105.591388,131.727273 L101.550236,131.727273 L94.5294331,122.386896 Z M120.675872,131.727273 C120.477228,131.329543 120.315832,130.621099 120.191679,129.601918 C118.590108,131.267409 116.678185,132.100142 114.45585,132.100142 C112.469406,132.100142 110.839926,131.537736 109.56736,130.412908 C108.294794,129.28808 107.658521,127.861869 107.658521,126.134233 C107.658521,124.033725 108.456191,122.402438 110.051553,121.240323 C111.646916,120.078208 113.890944,119.497159 116.783703,119.497159 L120.13581,119.497159 L120.13581,117.912464 C120.13581,116.706848 119.775773,115.746719 119.055687,115.032049 C118.335601,114.317379 117.274111,113.96005 115.871185,113.96005 C114.642072,113.96005 113.61162,114.270771 112.779797,114.892223 C111.947973,115.513675 111.532068,116.265621 111.532068,117.148082 L108.068223,117.148082 C108.068223,116.14133 108.425157,115.168772 109.139035,114.23038 C109.852914,113.291987 110.821291,112.549364 112.044195,112.002486 C113.2671,111.455608 114.611033,111.182173 116.076036,111.182173 C118.397692,111.182173 120.216503,111.763222 121.532522,112.925337 C122.848541,114.087453 123.531371,115.687667 123.581032,117.72603 L123.581032,127.010476 C123.581032,128.862403 123.816919,130.335222 124.288699,131.428977 L124.288699,131.727273 L120.675872,131.727273 Z M114.958666,129.098544 C116.038795,129.098544 117.06304,128.818895 118.031432,128.259588 C118.999823,127.700281 119.701276,126.973193 120.13581,126.078303 L120.13581,121.939453 L117.435501,121.939453 C113.214308,121.939453 111.103743,123.176124 111.103743,125.649503 C111.103743,126.730829 111.46378,127.575991 112.183866,128.185014 C112.903952,128.794037 113.828876,129.098544 114.958666,129.098544 Z M129.056141,129.918857 C129.056141,129.322263 129.233056,128.825109 129.586891,128.427379 C129.940727,128.02965 130.471472,127.830788 131.179142,127.830788 C131.886813,127.830788 132.423766,128.02965 132.790016,128.427379 C133.156267,128.825109 133.33939,129.322263 133.33939,129.918857 C133.33939,130.490592 133.156267,130.969103 132.790016,131.354403 C132.423766,131.739704 131.886813,131.932351 131.179142,131.932351 C130.471472,131.932351 129.940727,131.739704 129.586891,131.354403 C129.233056,130.969103 129.056141,130.490592 129.056141,129.918857 Z M142.576308,111.555043 L142.576308,134.057706 C142.576308,137.935566 140.819573,139.874467 137.30605,139.874467 C136.548718,139.874467 135.847266,139.762608 135.201672,139.538885 L135.201672,136.779652 C135.59896,136.879084 136.120394,136.9288 136.765988,136.9288 C137.535735,136.9288 138.122348,136.720616 138.525845,136.304244 C138.929341,135.887871 139.131086,135.16389 139.131086,134.13228 L139.131086,111.555043 L142.576308,111.555043 Z M138.777253,106.204368 C138.777253,105.65749 138.94796,105.188301 139.28938,104.796786 C139.630801,104.405271 140.130508,104.209517 140.788517,104.209517 C141.458942,104.209517 141.967961,104.402164 142.315589,104.787464 C142.663216,105.172765 142.837028,105.645061 142.837028,106.204368 C142.837028,106.763675 142.663216,107.229757 142.315589,107.602628 C141.967961,107.975499 141.458942,108.161932 140.788517,108.161932 C140.118093,108.161932 139.615281,107.975499 139.280069,107.602628 C138.944857,107.229757 138.777253,106.763675 138.777253,106.204368 Z M159.858285,126.376598 C159.858285,125.44442 159.507559,124.720439 158.806096,124.204634 C158.104633,123.688829 156.881746,123.244498 155.1374,122.871626 C153.393054,122.498755 152.008771,122.051317 150.984511,121.529297 C149.960251,121.007277 149.202931,120.385835 148.712527,119.66495 C148.222124,118.944066 147.976926,118.086475 147.976926,117.092152 C147.976926,115.43909 148.675275,114.040844 150.071993,112.897372 C151.468712,111.753901 153.253381,111.182173 155.426054,111.182173 C157.710464,111.182173 159.563416,111.772544 160.984965,112.953303 C162.406514,114.134061 163.117278,115.644167 163.117278,117.483665 L159.653434,117.483665 C159.653434,116.539058 159.253047,115.724968 158.452262,115.041371 C157.651477,114.357774 156.642751,114.01598 155.426054,114.01598 C154.172111,114.01598 153.191319,114.289415 152.483648,114.836293 C151.775978,115.38317 151.422148,116.097829 151.422148,116.980291 C151.422148,117.813037 151.751147,118.440694 152.409157,118.863281 C153.067167,119.285869 154.255911,119.689806 155.975427,120.075107 C157.694943,120.460407 159.088536,120.920274 160.15625,121.454723 C161.223964,121.989172 162.015426,122.632365 162.53066,123.384322 C163.045893,124.136279 163.303507,125.052907 163.303507,126.134233 C163.303507,127.936444 162.583431,129.381298 161.143259,130.468839 C159.703088,131.55638 157.834617,132.100142 155.537791,132.100142 C153.923805,132.100142 152.49607,131.814278 151.254542,131.242543 C150.013015,130.670807 149.041534,129.872253 148.340071,128.846857 C147.638608,127.821461 147.287882,126.712186 147.287882,125.518999 L150.733103,125.518999 C150.79518,126.674899 151.257642,127.591527 152.120503,128.26891 C152.983365,128.946292 154.122449,129.284979 155.537791,129.284979 C156.841395,129.284979 157.887366,129.020866 158.675736,128.492631 C159.464106,127.964397 159.858285,127.25906 159.858285,126.376598 Z"/>
    <polygon fill-rule="nonzero" points="35.597 45.058 80.997 45.058 80.997 0 127.132 0 127.132 92.149 35.597 92.149"/>
  </g>
</svg>
