<svg xmlns="http://www.w3.org/2000/svg" width="182" height="34" viewBox="0 0 182 34">
  <g fill="#01FFFF">
    <path d="M.560232119 7.68411536L4.54239471 7.68411536 4.54239471 11.3603421 4.61680903 11.3603421C4.74085504 10.8456802 4.97655575 10.3432693 5.32392222 9.85308749 5.69607132 9.36293851 6.13026558 8.92179349 6.62649391 8.52965243 7.14751594 8.11303127 7.71816966 7.78216703 8.33845507 7.53707067 8.95871834 7.29200711 9.59139507 7.1694644 10.2364963 7.16945346 10.7327025 7.1694644 11.0676555 7.18170445 11.2413443 7.20620643 11.4398157 7.23070841 11.6382982 7.25521039 11.8368028 7.27971237L11.8368028 11.3235563C11.5390569 11.2745523 11.2289198 11.2377994 10.9063913 11.2132646 10.6086454 11.1642606 10.3109106 11.1397586 10.013198 11.1397586 9.29367136 11.1397805 8.61136294 11.2868252 7.9662949 11.5809146 7.34600949 11.8505129 6.80016054 12.267156 6.32875912 12.8308218 5.85734664 13.3700185 5.48518646 14.0439871 5.21226753 14.8527493 4.93933751 15.6615224 4.80287805 16.5928274 4.80288912 17.646675L4.80288912 26.6901698.560209972 26.6901698.560209972 7.68411536M21.8466026 27.2048317C20.3083191 27.2048317 18.931311 26.9597572 17.7155782 26.4695973 16.524639 25.9549245 15.5073887 25.256443 14.6638271 24.374153 13.8450592 23.491863 13.2123825 22.4380153 12.7657858 21.2125991 12.343994 19.9872048 12.133098 18.6392568 12.1331091 17.1687661 12.133098 15.7227883 12.343994 14.3871023 12.7657858 13.1616861 13.2123825 11.9362918 13.8450592 10.8824441 14.6638271 10.0001322 15.5073887 9.11786402 16.524639 8.43163357 17.7155782 7.94145178 18.931311 7.42680082 20.3083191 7.1694644 21.8466026 7.16945346 23.384875 7.1694644 24.7494808 7.42680082 25.9404199 7.94145178 27.1561417 8.43163357 28.173392 9.11786402 28.992171 10.0001322 29.8357215 10.8824441 30.4684093 11.9362918 30.8902122 13.1616861 31.3367867 14.3871023 31.5600851 15.7227883 31.5601072 17.1687661 31.5600851 18.6392568 31.3367867 19.9872048 30.8902122 21.2125991 30.4684093 22.4380153 29.8357215 23.491863 28.992171 24.374153 28.173392 25.256443 27.1561417 25.9549245 25.9404199 26.4695973 24.7494808 26.9597572 23.384875 27.2048317 21.8466026 27.2048317M21.8466026 23.8962441C22.7894165 23.8962441 23.6081733 23.7001735 24.3028952 23.3080434 24.9975839 22.9159242 25.5682376 22.4012514 26.0148564 21.7640359 26.4614309 21.1268312 26.7839815 20.4160988 26.9824861 19.6318276 27.2057623 18.8230654 27.317417 18.0020413 27.3174281 17.1687661 27.317417 16.3600039 27.2057623 15.5512417 26.9824861 14.7424576 26.7839815 13.9337063 26.4614309 13.2229629 26.0148564 12.6102493 25.5682376 11.9730557 24.9975839 11.4583828 24.3028952 11.0662418 23.6081733 10.6741226 22.7894165 10.478063 21.8466026 10.4780411 20.9037776 10.478063 20.0850208 10.6741226 19.3903211 11.0662418 18.6955992 11.4583828 18.1249455 11.9730557 17.6783599 12.6102493 17.2317522 13.2229629 16.8968103 13.9337063 16.673512 14.7424576 16.4750184 15.5512417 16.3757772 16.3600039 16.3757882 17.1687661 16.3757772 18.0020413 16.4750073 18.8230654 16.673512 19.6318276 16.8968103 20.4160988 17.2317522 21.1268312 17.6783599 21.7640359 18.1249455 22.4012514 18.6955992 22.9159242 19.3903211 23.3080434 20.0850208 23.7001735 20.9037776 23.8962441 21.8466026 23.8962441M48.148487 14.0439761C47.9747872 12.8675967 47.4909834 11.9853067 46.6970424 11.3970951 45.9278841 10.7844143 44.9478519 10.478063 43.7569349 10.4780411 43.211086 10.478063 42.6280299 10.576049 42.0077666 10.7721414 41.3874812 10.94371 40.8168275 11.2868252 40.2958054 11.8014871 39.7747723 12.291658 39.3405781 12.9901394 38.9932338 13.8969314 38.6458673 14.7792324 38.4721896 15.9433608 38.4722007 17.3893386 38.4721896 18.1735989 38.5590174 18.9578591 38.7327172 19.7421194 38.9311997 20.5263796 39.2289234 21.224861 39.6259105 21.8375637 40.0476913 22.4502663 40.5811268 22.9526772 41.226217 23.3448073 41.8712961 23.7124355 42.6528347 23.8962441 43.5708548 23.8962441 44.8113925 23.8962441 45.8286428 23.5163649 46.6226059 22.7566176 47.4413517 21.9968703 47.9499824 20.9307607 48.148487 19.5582998L52.3911662 19.5582998C51.994168 22.0336233 51.0389406 23.933008 49.5254952 25.256443 48.0368212 26.5553761 46.0519411 27.2048317 43.5708548 27.2048317 42.0573762 27.2048317 40.7175862 26.9597572 39.551474 26.4695973 38.4101666 25.9549245 37.4425368 25.268694 36.6485848 24.410906 35.8546328 23.5286269 35.2467719 22.4870302 34.82498 21.2861269 34.428004 20.0852346 34.2295215 18.7863015 34.2295215 17.3893386 34.2295215 15.9678738 34.428004 14.6321877 34.82498 13.3822586 35.221956 12.1323623 35.8174145 11.0540017 36.6113776 10.1471878 37.4053186 9.21589382 38.3853507 8.4929104 39.551474 7.97821569 40.742391 7.43905181 42.1318126 7.1694644 43.7197278 7.16945346 44.8362083 7.1694644 45.8906658 7.31652003 46.8831225 7.61059848 47.9003618 7.88020777 48.7935551 8.29683987 49.5627134 8.86050573 50.3566433 9.42421534 51.0017335 10.1349478 51.4979729 10.9927139 51.994168 11.8505129 52.2919028 12.8675967 52.3911662 14.0439761L48.148487 14.0439761"/>
    <polyline points="55.988 .442 60.23 .442 60.23 15.367 67.897 7.684 73.107 7.684 65.739 14.669 73.814 26.69 68.641 26.69 62.761 17.463 60.23 19.889 60.23 26.69 55.988 26.69 55.988 .442"/>
    <path d="M89.0773138 15.5144668C89.0277043 14.8527602 88.8788092 14.2155447 88.6307172 13.6028311 88.4073967 12.9901394 88.0848572 12.4632156 87.6630875 12.0220596 87.2661004 11.5564126 86.769872 11.1887954 86.1744246 10.9191861 85.6037598 10.6251077 84.9586807 10.478063 84.2391651 10.4780411 83.4948337 10.478063 82.8125253 10.6128567 82.192262 10.8824332 81.5967925 11.1275295 81.0757594 11.4828957 80.6291738 11.9485318 80.2073819 12.3896878 79.8600265 12.9166116 79.5871076 13.5293033 79.3389934 14.1420169 79.2025339 14.8037344 79.1777292 15.5144668L89.0773138 15.5144668M79.1777292 18.2716287C79.1777181 19.006874 79.2769483 19.7176174 79.475464 20.4038369 79.6987512 21.0900673 80.0212908 21.690519 80.4430826 22.2051809 80.8648634 22.7198537 81.3982989 23.1364967 82.0434002 23.4550991 82.6884682 23.7491994 83.4576155 23.8962441 84.3508198 23.8962441 85.5913574 23.8962441 86.583792 23.6389077 87.3281344 23.1242348 88.0972596 22.58506 88.6679133 21.7885488 89.0400956 20.7346902L93.0594764 20.7346902C92.836156 21.7640359 92.4515823 22.6830898 91.9057666 23.491852 91.3599066 24.3006252 90.702414 24.9868556 89.9332889 25.5505434 89.1641306 26.0897182 88.2957531 26.4940993 87.3281344 26.7636867 86.3853095 27.057787 85.3928639 27.2048317 84.3508198 27.2048317 82.8373411 27.2048317 81.4975512 26.9597572 80.331439 26.4695973 79.1653157 25.9794265 78.1728812 25.293207 77.3541244 24.410906 76.5601613 23.5286269 75.9523004 22.4747792 75.5305085 21.249363 75.1335325 20.0239687 74.93505 18.6760207 74.93505 17.2055191 74.93505 15.857593 75.1459349 14.5831619 75.5677268 13.3822586 76.0143234 12.1568643 76.6345977 11.0907656 77.4285498 10.1839517 78.2473066 9.25265773 79.2273387 8.51741238 80.3686572 7.97821569 81.5099536 7.43905181 82.8001229 7.1694644 84.2391651 7.16945346 85.7526328 7.1694644 87.1048251 7.48807764 88.2957642 8.12526038 89.511486 8.73798489 90.5163339 9.55900904 91.310297 10.5883328 92.104238 11.6176894 92.6748917 12.8063308 93.0222582 14.1542678 93.3944073 15.4777138 93.4936485 16.8501638 93.319993 18.2716287L79.1777292 18.2716287M94.6464171 7.68411536L97.8470301 7.68411536 97.8470301 1.98598307 102.089709 1.98598307 102.089709 7.68411536 105.92301 7.68411536 105.92301 10.8089053 102.089709 10.8089053 102.089709 20.9552627C102.089709 21.3964186 102.102112 21.7762978 102.126916 22.0948891 102.176526 22.4135024 102.263365 22.6830898 102.387433 22.9036623 102.536295 23.1242348 102.74718 23.2957924 103.02011 23.4183351 103.293029 23.5163431 103.665189 23.5653798 104.136612 23.5653798 104.434325 23.5653798 104.73206 23.5653798 105.029806 23.5653798 105.327518 23.5408779 105.625253 23.4918739 105.922999 23.4183351L105.922999 26.6534059C105.451575 26.7024099 104.992576 26.7514138 104.545991 26.8004506 104.099383 26.8494546 103.640373 26.8739566 103.168983 26.8739566 102.05248 26.8739566 101.146873 26.7759486 100.452173 26.5798562 99.7822785 26.3592837 99.2488319 26.0529324 98.851867 25.6608023 98.4796957 25.2441702 98.2191792 24.7294973 98.0703173 24.1167947 97.9462602 23.5040921 97.8718238 22.8056106 97.847019 22.0213504L97.847019 10.8088835 94.6464061 10.8088835 94.6464061 7.68409348M129.573619 7.49910354C124.17455 7.49910354 119.815045 11.8395746 119.815045 17.1727367 119.815045 22.5058989 124.17455 26.8121875 129.573619 26.8121875 132.150336 26.8121875 133.996431 26.2953489 136.356173 24.5561458 141.549097 20.7287835 141.335931 14.8306319 146.322377 11.7035448 147.416854 11.0885779 148.698198 10.7464362 150.059703 10.7464362 153.647879 10.7464362 156.565419 13.5941679 156.565419 17.1385543 156.565419 20.6829407 153.647879 23.5648548 150.059703 23.5648548 147.243298 23.5648548 144.515593 21.7711119 143.450172 19.2920486 142.831238 20.4739782 142.176879 21.6471494 141.408485 22.8128409 143.458677 25.2319465 146.667285 26.8121875 149.921283 26.8121875 155.320352 26.8121875 159.679857 22.4717165 159.679857 17.1385543 159.679857 11.8053921 155.320352 7.49910354 149.921283 7.49910354 148.027738 7.49910354 146.235604 7.90308211 144.695948 8.76385417 137.86231 12.5843144 138.71307 18.4614862 134.037647 22.060827 132.794264 23.0180341 131.164911 23.5648548 129.435199 23.5648548 125.847023 23.5648548 122.929483 20.7171231 122.929483 17.1727367 122.929483 13.6283504 125.847023 10.7464362 129.435199 10.7464362 132.176846 10.7464362 134.8804 12.4375563 136.010125 14.8141477 136.590114 13.6563482 137.186558 12.479761 137.947998 11.3275379 135.892823 9.00286332 132.752494 7.49909807 129.573619 7.49910354z"/>
    <polyline points="112.659 .295 112.659 26.544 115.822 26.544 115.822 .295 112.659 .295"/>
    <path d="M163.611757,7.53760665 L163.611757,33.785801 L166.775152,33.785801 L166.775152,24.0070608 L166.849566,24.0070608 C167.19691,24.5707595 167.618702,25.0486575 168.11492,25.4407876 C168.635953,25.8084158 169.181791,26.1025052 169.752444,26.3230777 C170.323098,26.5436611 170.893741,26.7029568 171.464405,26.8009866 C172.059864,26.8989945 172.593299,26.9480422 173.064712,26.9480422 C174.528548,26.9480422 175.806315,26.6907058 176.898013,26.176033 C178.014493,25.6613601 178.932502,24.9628787 179.652029,24.0805887 C180.396349,23.1737966 180.942187,22.119949 181.289565,20.9190457 C181.661703,19.7181534 181.847783,18.4437332 181.847805,17.0957743 C181.847783,15.7478372 181.661703,14.4734171 181.289565,13.2725138 C180.917371,12.0716214 180.359131,11.0177738 179.614822,10.1109599 C178.895284,9.17966589 177.977275,8.44443148 176.860794,7.90523479 C175.769097,7.36607091 174.478927,7.0964835 172.990287,7.09646163 C171.650474,7.0964835 170.422339,7.34155799 169.305848,7.83170697 C168.189345,8.29737585 167.370588,9.05713411 166.849566,10.1109599 L166.775152,10.1109599 L166.775152,7.53760665 L163.611757,7.53760665 M178.498341,16.8752018 C178.49833,17.8065176 178.399122,18.7133206 178.200618,19.5955997 C178.002113,20.4779007 177.679562,21.2621609 177.232988,21.9483804 C176.786369,22.6346109 176.190911,23.1860476 175.44659,23.6026797 C174.727064,24.0193228 173.821457,24.2276443 172.729792,24.2276334 C171.638094,24.2276443 170.707683,24.0315738 169.938558,23.6394436 C169.16941,23.2228115 168.536723,22.6836258 168.040516,22.0219083 C167.569093,21.3601907 167.221748,20.6004434 166.99845,19.7426553 C166.775152,18.8603653 166.663497,17.9535733 166.663508,17.0222465 C166.663497,16.1399674 166.762727,15.2699283 166.961232,14.4121402 C167.18453,13.5543631 167.531886,12.7946158 168.003298,12.1328764 C168.4747,11.4466678 169.082571,10.8952311 169.826903,10.478588 C170.571223,10.0619559 171.47683,9.85364535 172.543712,9.85362347 C173.560951,9.85364535 174.441731,10.0497049 175.186074,10.4418241 C175.955199,10.8339652 176.575473,11.360889 177.046908,12.0225956 C177.543103,12.6843241 177.902861,13.4440823 178.126181,14.3018485 C178.374273,15.1351346 178.49833,15.9929227 178.498341,16.8752018"/>
  </g>
</svg>
