<svg xmlns="http://www.w3.org/2000/svg" width="170" height="51" viewBox="0 0 170 51">
  <path fill="#01FFFF" fill-rule="evenodd" d="M814.793626,87.4112551 C814.793626,85.0310758 813.088385,83.1599744 811.042095,83.3309477 C808.824319,83.3309477 807.290565,85.2020491 807.290565,87.4112551 C807.290565,89.6204611 808.995806,91.4915625 811.042095,91.4915625 C813.259872,91.4915625 814.793626,89.6204611 814.793626,87.4112551 Z M824,87.2402818 C824,93.7007684 818.545156,99.3102305 810.872535,99.3102305 C803.369475,99.3102305 797.912703,93.7007684 797.912703,87.2402818 C797.912703,80.7817161 803.369475,75.170333 811.042095,75.170333 C818.545156,75.170333 824,80.7817161 824,87.2402818 Z M796.548511,75.6813319 L787.852745,75.6813319 C787.683184,75.6813319 787.342136,75.8503842 787.342136,76.1904098 L787.342136,98.461127 C787.342136,98.6321003 787.511697,98.972126 787.852745,98.972126 L796.548511,98.972126 C796.719998,98.972126 797.061046,98.8011526 797.061046,98.461127 L797.061046,76.1904098 C797.061046,76.0194365 796.889559,75.6813319 796.548511,75.6813319 Z M796.719998,68.0297951 L787.683184,68.0297951 C787.511697,68.0297951 787.170649,68.2007684 787.170649,68.540794 L787.170649,73.8102305 C787.170649,73.9812039 787.342136,74.3212295 787.683184,74.3212295 L796.719998,74.3212295 C796.889559,74.3212295 797.230607,74.1521772 797.230607,73.8102305 L797.230607,68.3717418 C797.230607,68.2007684 797.061046,68.0297951 796.719998,68.0297951 Z M785.126286,68.0297951 L776.428594,68.0297951 C776.257107,68.0297951 775.916058,68.2007684 775.916058,68.540794 L775.916058,98.6321003 C775.916058,98.8011526 776.087546,99.1392572 776.428594,99.1392572 L785.126286,99.1392572 C785.29392,99.1392572 785.634968,98.972126 785.634968,98.6321003 L785.634968,68.3717418 C785.634968,68.2007684 785.465408,68.0297951 785.126286,68.0297951 Z M773.700209,75.6813319 L756.306751,75.6813319 C756.13719,75.6813319 755.796142,75.8503842 755.796142,76.1904098 L753.578365,84.6910502 L753.410731,85.2020491 L750.682346,76.1904098 C750.682346,76.0194365 750.339371,75.6813319 750.16981,75.6813319 L743.348846,75.6813319 C743.177359,75.6813319 742.83631,75.8503842 742.83631,76.1904098 L740.279412,84.6910502 L740.107925,85.2020491 L739.938364,84.6910502 L738.91522,80.4397695 L737.892075,76.1904098 C737.892075,76.0194365 737.551027,75.6813319 737.379539,75.6813319 L723.739538,75.6813319 L723.739538,68.3717418 C723.739538,68.2007684 723.39849,67.8607428 723.059369,68.0297951 L714.533164,70.75 C714.190189,70.75 714.020628,70.9209733 714.020628,71.2609989 L714.020628,75.8503842 L711.804779,75.8503842 C711.633291,75.8503842 711.292243,76.0194365 711.292243,76.3613832 L711.292243,82.8199488 C711.292243,82.9909221 711.461804,83.3309477 711.804779,83.3309477 L714.020628,83.3309477 L714.020628,91.3205891 C714.020628,96.9300512 717.090062,99.4812039 722.716394,99.4812039 C725.103731,99.4812039 727.321508,98.972126 728.855261,98.1211014 L728.855261,91.3205891 C728.855261,90.9805635 728.514213,90.8115112 728.344652,90.9805635 C727.491069,91.3205891 726.639412,91.4915625 725.957315,91.4915625 C724.421635,91.4915625 723.568051,90.8115112 723.568051,89.1113832 L723.568051,83.3309477 L728.514213,83.3309477 C728.685701,83.3309477 729.024822,83.1599744 729.024822,82.8199488 L729.024822,77.3795389 L735.506665,98.8011526 C735.506665,98.972126 735.845786,99.3102305 736.015347,99.3102305 L743.177359,99.3102305 C743.348846,99.3102305 743.689894,99.1392572 743.689894,98.8011526 L746.757401,89.2823565 L748.293082,94.2117674 L749.657274,98.8011526 C749.657274,98.972126 749.998323,99.3102305 750.16981,99.3102305 L757.331822,99.3102305 C757.501383,99.3102305 757.842431,99.1392572 757.842431,98.8011526 L764.322347,77.3795389 L764.322347,98.8011526 C764.322347,98.972126 764.493834,99.3102305 764.832956,99.3102305 L773.528721,99.3102305 C773.700209,99.3102305 774.041257,99.1392572 774.041257,98.8011526 L774.041257,76.1904098 C774.041257,76.0194365 773.871696,75.6813319 773.700209,75.6813319 Z M773.871696,68.0297951 C774.041257,68.0297951 774.210817,68.2007684 774.382305,68.3717418 L774.382305,73.8102305 C774.382305,74.1521772 774.041257,74.3212295 773.871696,74.3212295 L764.832956,74.3212295 C764.493834,74.3212295 764.322347,73.9812039 764.322347,73.8102305 L764.322347,68.540794 C764.322347,68.2007684 764.661468,68.0297951 764.832956,68.0297951 L773.871696,68.0297951 Z M685.887043,71.9410502 C682.98717,71.9410502 680.599832,74.3212295 680.599832,77.2104867 C680.599832,80.0997439 682.98717,82.4818442 685.887043,82.4818442 C688.784989,82.4818442 691.172326,80.0997439 691.172326,77.2104867 C691.172326,74.3212295 688.784989,71.9410502 685.887043,71.9410502 Z M685.887043,84.5200768 C682.98717,84.5200768 680.599832,86.9002561 680.599832,89.7895133 C680.599832,92.6806916 682.98717,95.0608709 685.887043,95.0608709 C688.784989,95.0608709 691.172326,92.6806916 691.172326,89.7895133 C691.172326,86.9002561 688.784989,84.5200768 685.887043,84.5200768 Z M698.334338,83.501921 C698.334338,73.1301793 689.979621,64.8005123 679.576688,64.8005123 C669.175681,64.8005123 660.820964,73.1301793 660.820964,83.501921 C660.820964,93.8698207 669.175681,102.201409 679.576688,102.201409 C689.979621,102.201409 698.334338,93.8698207 698.334338,83.501921 Z M705.155302,83.501921 C705.155302,97.6120235 693.729224,109 679.576688,109 C665.424151,109 654,97.6120235 654,83.501921 C654,69.3898975 665.424151,58 679.576688,58 C693.729224,58 705.155302,69.3898975 705.155302,83.501921 Z M673.26826,84.5200768 C670.370313,84.5200768 667.982976,86.9002561 667.982976,89.7895133 C667.982976,92.6806916 670.368386,95.0608709 673.26826,95.0608709 C676.168133,95.0608709 678.553543,92.6806916 678.553543,89.7895133 C678.553543,86.9002561 676.168133,84.5200768 673.26826,84.5200768 Z M678.553543,77.2104867 C678.553543,80.0997439 676.168133,82.4818442 673.26826,82.4818442 C670.368386,82.4818442 667.982976,80.0997439 667.982976,77.2104867 C667.982976,74.3212295 670.370313,71.9410502 673.26826,71.9410502 C676.168133,71.9410502 678.553543,74.3212295 678.553543,77.2104867 Z" transform="translate(-654 -58)"/>
</svg>
