<svg xmlns="http://www.w3.org/2000/svg" width="112" height="70" viewBox="0 0 112 70">
  <g fill="#01FFFF" fill-rule="evenodd">
    <path d="M57.8360656 52.773913L56.2448087 52.773913 56.2448087 54.9652174 56.1836066 54.9652174C54.7759563 52.773913 52.5114754 52.4086957 51.4098361 52.4086957 48.1661202 52.4086957 44.9224044 55.026087 44.9224044 58.9826087 44.9224044 62.8782609 48.1661202 65.373913 51.4098361 65.373913 53.2459016 65.373913 55.2655738 64.5826087 56.1836066 62.8173913L56.2448087 62.8173913 56.2448087 63.9130435C56.2448087 67.3217391 53.8579235 68.5391304 51.7770492 68.5391304 48.7781421 68.5391304 47.5540984 66.4695652 47.1256831 65.4347826L45.473224 65.4347826C46.6360656 69.2695652 50.063388 70 51.8382514 70 52.3278689 70 55.2043716 69.8782609 56.7344262 67.7478261 57.8972678 66.226087 57.8972678 64.5826087 57.8972678 63.2434783L57.8972678 52.773913 57.8360656 52.773913zM46.5136612 58.9826087C46.5136612 56.3043478 48.5945355 53.9304348 51.4098361 53.9304348 54.2251366 53.9304348 56.3060109 56.3043478 56.3060109 58.9826087 56.3060109 61.0521739 54.6535519 64.0347826 51.4098361 64.0347826 48.5945355 64.0347826 46.5136612 61.6608696 46.5136612 58.9826087zM61.9978142 65.1304348L63.589071 65.1304348 63.589071 58.0086957C63.589071 56.6695652 63.8338798 56 64.1398907 55.4521739 64.6907104 54.6 65.6087432 53.9304348 66.9551913 53.9304348 68.3016393 53.9304348 69.2196721 54.5391304 69.7704918 55.4521739 70.0765027 56 70.3213115 56.6695652 70.3213115 58.0086957L70.3213115 65.1304348 71.9125683 65.1304348 71.9125683 58.0086957C71.9125683 56.6695652 72.157377 56 72.463388 55.4521739 72.9530055 54.6 73.9322404 53.9304348 75.2786885 53.9304348 76.6251366 53.9304348 77.5431694 54.5391304 78.0939891 55.4521739 78.4 56 78.6448087 56.6695652 78.6448087 58.0086957L78.6448087 65.1304348 80.2360656 65.1304348 80.2360656 57.826087C80.2360656 53.626087 77.1759563 52.5304348 75.2786885 52.5304348 74.2382514 52.5304348 72.0349727 53.0173913 71.1169399 54.9043478 70.1989071 53.0173913 67.9956284 52.5304348 66.9551913 52.5304348 65.7923497 52.5304348 64.2622951 53.0782609 63.589071 54.2956522L63.5278689 54.2956522 63.5278689 54.173913 63.589071 54.2347826 63.589071 52.8347826 61.9978142 52.8347826 61.9978142 65.1304348M84.4590164 65.1304348L86.0502732 65.1304348 86.0502732 62.9391304 86.1114754 62.9391304C87.5191257 64.9478261 89.6612022 65.373913 90.9464481 65.373913 94.863388 65.373913 97.6174863 62.3913043 97.6174863 58.8608696 97.6174863 55.573913 94.9857923 52.4086957 90.9464481 52.4086957 89.6 52.4086957 87.5191257 52.8956522 86.1114754 54.9043478L86.0502732 54.9043478 86.0502732 48.4521739 84.4590164 48.4521739 84.4590164 65.1304348zM96.0262295 58.9826087C96.0262295 61.7217391 94.0065574 63.973913 90.9464481 63.973913 88.2535519 63.973913 85.989071 61.8434783 85.989071 58.9217391 85.989071 56.2434783 88.0699454 53.8695652 90.9464481 53.8695652 93.6393443 53.9304348 96.0262295 55.8782609 96.0262295 58.9826087z"/>
    <g transform="translate(0 48.087)">
      <path d="M100.922404,17.0434783 L102.513661,17.0434783 L102.513661,10.2869565 C102.513661,8.70434783 103.003279,7.54782609 103.676503,6.87826087 C104.533333,6.02608696 105.696175,5.84347826 106.369399,5.84347826 C107.103825,5.84347826 108.205464,6.08695652 109.062295,6.87826087 C109.735519,7.54782609 110.225137,8.64347826 110.225137,10.2869565 L110.225137,17.0434783 L111.816393,17.0434783 L111.816393,10.2869565 C111.816393,8.27826087 111.204372,6.8173913 110.286339,5.90434783 C109.123497,4.74782609 107.899454,4.3826087 106.369399,4.3826087 C104.288525,4.3826087 103.003279,5.53913043 102.574863,6.26956522 L102.513661,6.26956522 L102.513661,0.304347826 L100.922404,0.304347826 L100.922404,17.0434783"/>
      <path fill-rule="nonzero" d="M11.8120219,17.0434783 L8.50710383,17.0434783 L8.50710383,15.2782609 L8.44590164,15.2782609 C7.58907104,16.6782609 6.05901639,17.3478261 4.59016393,17.3478261 C0.918032787,17.3478261 8.8817842e-16,15.2782609 8.8817842e-16,12.173913 L8.8817842e-16,4.50434783 L3.48852459,4.50434783 L3.48852459,11.5652174 C3.48852459,13.6347826 4.10054645,14.6695652 5.69180328,14.6695652 C7.58907104,14.6695652 8.38469945,13.6347826 8.38469945,11.0782609 L8.38469945,4.50434783 L11.873224,4.50434783 L11.873224,17.0434783"/>
    </g>
    <path fill-rule="nonzero" d="M15.8513661 47.8434783L19.3398907 47.8434783 19.3398907 50.7043478 15.8513661 50.7043478 15.8513661 47.8434783zM15.8513661 52.5913043L19.3398907 52.5913043 19.3398907 65.1304348 15.8513661 65.1304348 15.8513661 52.5913043zM23.5016393 47.8434783L26.9901639 47.8434783 26.9901639 54.173913 27.0513661 54.173913C27.9081967 52.8956522 29.4382514 52.2869565 31.0295082 52.2869565 33.5387978 52.2869565 36.231694 54.2956522 36.231694 58.8608696 36.231694 63.4869565 33.5387978 65.4956522 31.0295082 65.4956522 29.1934426 65.4956522 27.663388 64.9478261 26.8677596 63.5478261L26.8065574 63.5478261 26.8065574 65.1304348 23.5016393 65.1304348 23.5016393 47.8434783zM29.8054645 54.8434783C27.7857923 54.8434783 26.8677596 56.7304348 26.8677596 58.8608696 26.8677596 60.9304348 27.7857923 62.8782609 29.8054645 62.8782609 31.8251366 62.8782609 32.7431694 60.9913043 32.7431694 58.8608696 32.7431694 56.7913043 31.8863388 54.8434783 29.8054645 54.8434783zM40.3322404 39.1391304C37.6393443 40.3565217 34.8852459 40.7217391 32.1923497 40.2347826 30.3562842 39.8695652 28.7038251 38.8956522 27.357377 37.5565217 25.3377049 35.426087 24.1748634 32.5043478 23.7464481 28.973913 23.6852459 28.5478261 23.6852459 28.1217391 23.6240437 27.6347826L23.8076503 14.8521739 34.4568306 14.8521739 34.3344262 27.026087 34.3344262 27.3304348C34.4568306 29.7652174 35.1300546 30.5565217 35.9256831 30.9217391 37.3945355 31.7130435 39.9650273 31.8956522 44.8 27.6956522L44.8 36.4C43.5147541 37.4347826 42.168306 38.2869565 40.3322404 39.1391304"/>
    <rect width="10.588" height="25.809" x="44.8" y="14.791" fill-rule="nonzero"/>
    <g transform="translate(44.678)">
      <path d="M35.4972678,15.2173913 C31.5803279,14.1217391 27.9081967,15.3391304 24.4808743,18.2608696 L24.4808743,5.29565217 L13.9540984,5.29565217 L13.9540984,40.6 L24.5420765,40.6 L24.5420765,38.773913 C25.5825137,39.5652174 26.7453552,40.173913 28.1530055,40.3565217 C34.4568306,41.3913043 40.4546448,37.5565217 42.8415301,30.8 C45.2284153,23.9826087 41.495082,16.8608696 35.4972678,15.2173913 Z M32.1311475,30.6173913 C29.9278689,32.7478261 26.9289617,33.2347826 25.3989071,31.6521739 C23.8688525,30.0695652 24.3584699,27.0869565 26.5617486,24.9565217 C28.7650273,22.826087 31.7639344,22.3391304 33.2939891,23.9217391 C34.7628415,25.5043478 34.273224,28.4869565 32.1311475,30.6173913 Z"/>
      <path fill-rule="nonzero" d="M8.07868852,7.79130435 C5.93661202,9.86086957 2.9989071,10.3478261 1.46885246,8.82608696 C-0.0612021858,7.30434783 0.428415301,4.32173913 2.5704918,2.25217391 C4.71256831,0.12173913 7.65027322,-0.304347826 9.18032787,1.2173913 C10.7103825,2.73913043 10.220765,5.66086957 8.07868852,7.79130435"/>
    </g>
  </g>
</svg>
