<svg xmlns="http://www.w3.org/2000/svg" width="60" height="60" viewBox="0 0 60 60">
  <path fill="#01FFFF" d="M0,0 L0,60 L60,60 L60,0 L0,0 Z M39.5915634,54.3756277 L33.1637094,47.9477737 L33.1637094,28.7445598 L26.8563776,35.0518915 L26.8563776,50.9206562 L23.381319,54.3957148 L19.9062605,50.8804821 L19.9062605,14.0006696 L18.9420824,13.0364915 L14.5229327,17.4757282 L12.2530968,15.2259792 L21.8547037,5.62437228 L21.8747908,5.64445932 L22.2564446,6.00602611 L26.8362906,10.5858721 L26.8362906,27.1777703 L33.1436224,20.8704386 L33.1436224,13.9604955 L29.9899565,10.7867426 L35.1724138,5.60428524 L40.1339136,10.5657851 L40.1339136,44.5329762 L42.5644459,46.9635085 L45.5172414,44.0107131 L47.7469032,46.240375 L39.5915634,54.3756277 Z"/>
</svg>
